<svg width="480" height="60" version="1.1" viewBox=" 15.875 0 127 15.875" xmlns="http://www.w3.org/2000/svg">
<g fill="#414141">
<path d="m18.595 6.3726c0.63652-1.9485-2.7599 4.7486-1.6732 6.0729 0.1512 0.18427 0.4428 0.28533 0.47771 0.11288 0.08483-0.41906 4.1098-7.8477 8.5929-7.7792 1.8082 0.027666 1.8589 3.9461 1.8329 4.4233-0.03231 0.59327 0.0025 1.4136-0.0918 2.108-0.13685 1.008-0.48714 1.393-1.1968 1.393-1.2308 0-0.78441-1.0946 1.2482-1.0946 0.87358 0 2.1139 0.51377 2.3731 0.7389 0.74394 0.64615 1.3195 0.12514 1.0963-0.3445-0.04207-0.08852-0.14107-0.1108-0.06794-0.38078 0.37536-1.3857-0.33001 0.13908-0.63064 0.05735-0.52024-0.14144-1.9546-0.47869-2.4887-0.46688-0.47379 0.01048-1.3972 0.04054-2.1214 0.45866-0.85339 0.49271-0.72056 1.1493-0.1626 1.3942 0.66016 0.28975 1.3273 0.17117 2.0561-0.11396 0.67543-0.26423 0.67472-2.6288 0.38067-5.815-0.12892-1.7017-1.0351-2.7397-2.2136-2.7338-4.4713 0.022395-8.5594 6.0584-8.4743 6.093-0.39727 0.32504 0.36958-2.0005 1.0631-4.1236zm1.6376-4.8531c-1.4514 5.7379-0.35157 8.9088-0.47493 11.525-0.02164 0.45904-1.1307 0.01482-1.1307 0.01482s0.85278 1.0511 1.3065 1.0843c1.2243 0.08962 0.37487-4.2422 0.11917-6.6783-0.28573-2.7222 0.40216-3.0996 0.35195-5.3309-0.013688-0.60828-0.11897-0.82476-0.172-0.6151z"/>
<path d="m46.622 3.9282c0.30994 0.067417 0.50751 0.11259 0.671 0.035927 0.52079-0.2442 0.58373-0.20014 0.10298 0.14835-0.1165 0.084453 0.05066 0.17485 0.15912 0.27638 0.19327 0.18091-0.08299 0.44648-0.68508 0.44648-0.61055 0-0.68244-0.2698-1.3938-0.57641-0.73925-0.31864-0.78331-0.44354-1.6418-0.25986-0.98054 0.20979-0.72637-0.53153 0.53153-0.53153 1.0238 0 1.7459 0.3497 2.256 0.46066zm-10.102 0.31747c-0.39173 2.8687-0.41002 5.3647-0.40418 6.7767 0.0016 0.37863-0.86902 0.56984-1.1869 0.36414-1.2038-0.779-1.2283-2.9863-0.25245-3.7745 1.1708-0.94561 1.4544 0.49408 1.4198 1.0571-0.18937 3.0765-0.24031 6.2666 3.9444 5.5441 2.2875-0.39494 4.2376-0.74696 4.0126-2.1514-0.18117-1.1312-0.25996-1.9228 0.08254-1.2514 1.2174 2.3868 0.94947 2.777 0.08639 3.0329-9.1649 2.7174-8.8123-1.8274-8.9746-3.0802-0.15891-1.2267 0.47736-4.743-0.9375-2.0543-0.28387 0.53943 0.10945 1.3188 0.28315 1.6003 0.97667 1.5825 0.76583-1.1239 0.77612-1.4678 0.05039-1.684 0.10969-2.4524 0.40703-4.1472 0.23057-1.3142 0.44486-2.8844 0.87575-3.1642 0.21325-0.1385 0.80523-0.14649 0.59834 0.013922-0.18197 0.14109-0.28323 0.48709-0.38706 0.78918-0.1988 0.57839-0.23622 1.1268-0.34353 1.9126zm-3.1405 0.14829c1.3408-1.0462 2.4675-1.5069 4.0042-2.1143 0.60309-0.23838 1.0902-0.2239 0.40395-0.61945-0.52298-0.30146 0.55506-0.13776 0.98984 0.2651 0.35155 0.39852 0.16659 0.53847-0.43703 0.64965-1.2685 0.23364-2.8912 1.1469-4.2759 1.9135-1.9883 1.1009-1.5208 0.55765-0.68508-0.094494z"/>
<path d="m51.812 6.3156c0.58877-1.9635-2.7599 4.7486-1.6732 6.0729 0.1512 0.18427 0.4428 0.28533 0.47771 0.11288 0.08483-0.41906 4.1098-7.8477 8.5929-7.7792 1.8082 0.027666 1.8589 3.9461 1.8329 4.4233-0.03231 0.59327 0.0025 1.4136-0.0918 2.108-0.13685 1.008-0.48714 1.393-1.1968 1.393-1.2308 0-0.78441-1.0946 1.2482-1.0946 0.87358 0 2.1139 0.51377 2.3731 0.7389 0.74394 0.64615 1.3195 0.12514 1.0963-0.3445-0.04207-0.08852-0.14107-0.1108-0.06794-0.38078 0.37536-1.3857-0.33001 0.13908-0.63064 0.05735-0.52024-0.14144-1.9546-0.4787-2.4887-0.46688-0.47379 0.01048-1.3972 0.04054-2.1214 0.45866-0.85339 0.49271-0.72056 1.1493-0.1626 1.3942 0.66016 0.28975 1.3273 0.17117 2.0561-0.11396 0.67543-0.26423 0.67472-2.6288 0.38067-5.815-0.12892-1.7017-1.0351-2.7397-2.2136-2.7338-4.4713 0.022395-7.215 4.2543-8.4743 6.093-0.38018 0.5551 0.66153-2.7844 1.0631-4.1236zm1.4615-4.3062c-1.3188 6.3851-0.17886 8.4337-0.29885 10.978-0.02164 0.45904-1.1307 0.01482-1.1307 0.01482s0.85278 1.0511 1.3065 1.0843c1.2243 0.08962 0.37487-4.2422 0.11917-6.6783-0.28573-2.7222 0.41736-3.0999 0.35195-5.3309-0.0038-0.12793-0.07573-0.3109-0.11417-0.39695-0.10676-0.23903-0.27888-0.1761-0.29804-0.041927-0.02087 0.14612-0.02998 0.38016 0.06412 0.37075z"/>
<path d="m73.561 13.681c1.4929 0 3.7983-0.15957 3.7244-1.1221-0.01144-0.14915-0.39287-0.13942-0.36336-0.37805 0.07576-0.6126 0.01167-0.54159-0.1878-0.19609-0.22835 0.39551-2.4385 0.71986-3.0921 0.75132-2.6791 0.12893-4.8785-0.86535-4.646-1.6097 0.25643-0.8212 0.72237-1.4429-0.36213-0.60135-2.261 2.1015 2.9484 3.1559 4.927 3.1559zm-3.5507-9.8181c1.2726-0.21432 3.13 0.19119 4.2619 0.72451 0.87208 0.41092 0.29977 0.66756-0.53548 1.4165-0.39024 0.34992-0.07648 0.51522 1.375-0.19828 0.76776-0.37742 1.7796-0.9282 0.18537-1.8487-0.72797-0.42029-1.6911-0.78628-2.5765-0.8098-0.88536-0.023517-2.1284-0.028917-2.7481 0.18355-1.8618 0.63829-0.72434 0.66053 0.03787 0.53216z"/>
<path d="m96.634 1.3573c0.53319 0.32017-1.4857 5.2194-3.2266 7.1-0.41943 0.45306-1.3533 1.8057-2.6084 2.665-1.9147 1.3109-1.8026-0.41992-1.5966-0.8696 0.47284-1.0321 1.4532-2.3039 3.3791-3.2582 1.5822-0.78398 3.8026-1.1359 4.7474-1.0649 1.6267 0.12214 3.5672 0.49899 3.5672 2.4568 0 1.0806-3.5582 4.2732-4.7011 5.2444-1.6294 1.3847 5.8822-2.2357 5.8822-5.1735 0-2.3221-2.7058-3.1892-5.0082-3.1892-3.5395 0-7.8568 1.8825-8.5045 4.2995-0.46239 1.7257-0.36128 3.6966 2.0316 2.3151 3.5628-2.057 5.2367-6.5201 6.2672-8.1861 0.34681-0.56071 0.6079-1.3309 0.25151-1.8856-0.202-0.31439-0.80626-0.64906-0.48082-0.45364zm-5.9552 2.3634c0.01466 0.66108 0.71971 7.2879 4.8546 7.2879 0.37192 0 0.36623-0.46856 0.07087-0.77958-0.14336-0.15096-0.54548-1.0234-0.45255-0.36508 0.02414 0.17103-0.21469 0.18884-0.32475 0.18884-1.6243 0-3.1683-3.2036-3.4934-4.4092-0.27123-1.0059-0.68176-3.139-0.65478-1.9228z"/>
<path d="m111 1.1506c0.16056 0.46004-0.0597 1.2818-0.27014 2.2207-0.49836 2.2238-2.5341 4.0463-2.5341 9.2909 0 1.7612 1.7587 2.3151 3.5199 2.3151 0.96669 0 3.0148-0.59577 1.6102-2.8081-0.21355-0.33636-1.4426-1.9309-0.68483-0.20545 1.3796 3.1415-1.7179 2.2326-2.4846 2.2103-1.3255-0.0385-1.4877-1.3442-1.441-2.6695 0.0831-2.3599 2.8434-7.1087 2.8434-9.4449 0-1.0507-0.80888-1.6255-0.55886-0.90907z"/>
<path d="m109.53 3.7853c1.2476 0 1.851 0.32721 2.8063 0.65147 0.63831 0.21667 1.339 0.72053 1.0941 1.2612-0.063 0.13907-0.33461 0.11808-0.48863 0.17874-1.9014 0.74888-1.1899 0.41156-0.31662-0.26632 0.2309-0.17924-1.0716-0.84803-1.5668-0.9648-0.73351-0.17296-1.034-0.20576-2.0457-0.13982-0.43563 0.02839-0.78563 0.87477-0.76893 0.089712 0.015-0.70442 1.016-0.81016 1.2862-0.81016z"/>
<path d="m109.92 6.5673c-0.83458 0.10078-1.9576 0.23438-2.6931 1.2757-0.20848 0.29517-0.2184 1.6133 0.0312 1.8746 1.2915 12.801 5.065 18.166 1.8088 2.6173-0.33758-1.612-1.0074-4.1132-0.60081-4.3709 1.4478-0.91783 3.6539-1.6623 1.4539-1.3967z"/>
<path d="m77.717 3.6626c0.59154 0.41014 0.95079 1.672 1.5766 1.7145 0.70805-0.77905-0.38934-1.8424-1.1627-1.8722-0.2189-0.043384-0.59724 0.030507-0.41385 0.15766z"/>
<path d="m79.445 3.6202c0.59154 0.41014 0.95079 1.672 1.5766 1.7145 0.70805-0.77905-0.38934-1.8424-1.1627-1.8722-0.2189-0.043384-0.59724 0.030507-0.41385 0.15766z"/>
</g>
<g>
<g transform="matrix(3.0814 0 0 3.0814 128.42 -900.7)" stroke="#414141" stroke-width=".32453">
<path d="m1.9844 295.28 0.52917 0.26459m-0.52917-0.79375h0.79375l-1.0583 1.3229 1.0583 1e-5m0.52918-2.6458 0.52917 0.26459m-0.52917-0.79375h0.79375l-1.0583 1.3229 1.0583 1e-5m-3.7042 1.8521 0.52917 0.26459m-0.52917-0.79375h0.79375l-1.0583 1.3229 1.0583 1e-5" fill="none" stroke="#414141" stroke-linecap="square" stroke-linejoin="round" stroke-width=".32453"/>
</g>
</g>
</svg>
