<?xml version="1.0" encoding="UTF-8"?>
<svg width="1086" height="250" version="1.1" viewBox="0 0 287.3 66.15" xmlns="http://www.w3.org/2000/svg" xmlns:cc="http://creativecommons.org/ns#" xmlns:dc="http://purl.org/dc/elements/1.1/" xmlns:rdf="http://www.w3.org/1999/02/22-rdf-syntax-ns#" style="background-color:white">
  <defs>
    <clipPath id="clip1-6">
      <rect x="881" y="170" width="56" height="57" />
    </clipPath>
    <clipPath id="clip2-1">
      <rect x="881" y="170" width="56" height="57" />
    </clipPath>
    <clipPath id="clip3-7">
      <rect x="881" y="170" width="56" height="57" />
    </clipPath>
    <clipPath id="clip4-6">
      <rect x="468" y="200" width="56" height="57" />
    </clipPath>
    <clipPath id="clip5-1">
      <rect x="468" y="200" width="56" height="57" />
    </clipPath>
    <clipPath id="clip6-0">
      <rect x="468" y="200" width="56" height="57" />
    </clipPath>
  </defs>
  <metadata>
    <rdf:RDF>
      <cc:Work rdf:about="">
        <dc:format>image/svg+xml</dc:format>
        <dc:type rdf:resource="http://purl.org/dc/dcmitype/StillImage" />
        <dc:title />
      </cc:Work>
    </rdf:RDF>
  </metadata>
  <g transform="translate(37.84 -115.1)">
    <path d="m178.7 120.9c0-3.144 2.549-5.693 5.693-5.693h59.26c3.146 0 5.694 2.549 5.694 5.693v54.5c0 3.144-2.548 5.693-5.694 5.693h-59.26c-3.144 0-5.693-2.549-5.693-5.693z" fill="#f2f2f2" fill-rule="evenodd" stroke="#000" stroke-miterlimit="8" stroke-width=".3528" />
    <path d="m-37.7 120.9c0-3.144 2.549-5.693 5.693-5.693h164.3c3.144 0 5.693 2.549 5.693 5.693v54.5c0 3.144-2.549 5.693-5.693 5.693h-164.3c-3.144 0-5.693-2.549-5.693-5.693z" fill="#f2f2f2" fill-rule="evenodd" stroke="#000" stroke-miterlimit="8" stroke-width=".3528" />
    <g transform="matrix(.2646 0 0 .2646 -49.48 74.35)" clip-path="url(#clip1-6)">
      <g clip-path="url(#clip2-1)">
        <g clip-path="url(#clip3-7)">
          <path transform="matrix(1 0 0 1.018 881 170)" d="m56 28c0 15.46-12.54 28-28 28h-28v-28c0-15.46 12.54-28 28-28l28-2.018e-6z" />
          <path transform="matrix(1 0 0 1.018 881 170)" d="m15.58 28.01c-0.3934-0.0059-0.784 7e-3 -1.171 0.0376-5.417 0.4305-10.1 4.362-11.31 9.834-1.386 6.253 2.187 12.6 8.251 14.66 6.065 2.059 12.76-0.8015 15.47-6.606l-5.075-2.367c-1.519 3.258-5.19 4.825-8.593 3.67-2.912-0.9886-4.765-3.679-4.752-6.633h14v4e-3h5.6c0-6.405-4.862-11.83-11.23-12.52-0.3978-0.0436-0.7938-0.0679-1.187-0.0738zm-0.088 5.598c0.2202 0.0036 0.4422 0.0174 0.6655 0.0419 2.582 0.2828 4.69 1.914 5.66 4.154h-12.84c1.114-2.573 3.661-4.242 6.512-4.195z" fill="#fff" fill-opacity=".502" />
          <g fill="none" stroke="#fff">
            <path transform="matrix(1 0 0 1.018 906.2 41.39)" d="m24.28 145.9c-2.113 4.531-7.298 6.745-12.03 5.138-4.734-1.607-7.5-6.52-6.418-11.4 1.082-4.881 5.665-8.165 10.63-7.621 4.97 0.545 8.733 4.742 8.733 9.742" stroke-miterlimit="1" stroke-width="5.6" />
            <path transform="matrix(1 0 0 1.018 906.2 41.39)" d="m5.111 140.4h21.59" stroke-width="2.8" />
            <path transform="matrix(1 0 0 1.018 881 67.04)" d="m41.57 133.5c0 6.185-5.014 11.2-11.2 11.2" stroke-width="2.8" />
          </g>
          <path transform="matrix(1.276 0 0 1 895 135.2)" d="m18.08 70.43 3.291-5.7 3.291 5.7z" fill="#fff" />
        </g>
      </g>
    </g>
    <path d="m-26.48 123.8h13.26v-1.323c0-0.5821-0.4762-1.058-1.058-1.058h-7.938l-2.91-1.931c-0.1852-0.1058-0.3704-0.1852-0.5821-0.1852h-4.974c-0.5821 0-1.058 0.4762-1.058 1.058v12.96c0 0.0529 3.413-8.281 3.413-8.281 0.3175-0.7408 1.032-1.244 1.852-1.244z" fill-rule="evenodd" stroke-width=".2646" />
    <path d="m-11.11 125.9c0-0.5556-0.3969-1.005-0.9525-1.058h-14.42c-0.3969 0-0.7408 0.2381-0.8996 0.5821l-3.572 8.678h16.14l3.598-7.726c0.07937-0.1588 0.1058-0.3175 0.1058-0.4762z" fill-rule="evenodd" stroke-width=".2646" />
    <g transform="matrix(.2646 0 0 .2646 -7.789 129.4)" aria-label="Explorer.exe">
      <path d="m17.97-24.03v1.828h-12.25v8.156h9.25v1.828h-9.25v9.688h12.48v1.828h-14.59v-23.33z" />
      <path d="m33.8-16.7-5.078 7.719 5.531 8.281h-2.25l-3.547-5.531q-0.1719-0.2812-0.4688-0.7344-0.2656-0.4375-0.4219-0.6719-0.3281 0.5-0.9062 1.406l-3.453 5.531h-2.172l5.438-8.219-5.156-7.781h2.25l3.172 5.062q0.4219 0.6875 0.9531 1.438l0.9219-1.578 3.016-4.922z" />
      <path d="m40.56-16.7v2.562q1.891-2.953 4.922-2.953 3.016 0 4.766 2.484 1.578 2.25 1.578 5.844 0 4.125-2.125 6.484-1.766 1.969-4.375 1.969-2.984 0-4.703-2.922v8.328h-1.984v-21.8zm0.0625 4.547v7.031q1.797 3.109 4.422 3.109 2.234 0 3.531-1.969 1.203-1.797 1.203-4.766 0-3.375-1.438-5.188-1.203-1.5-3.109-1.5-2.844 0-4.609 3.281z" />
      <path d="m59.19-24.45v23.75h-1.984v-23.75z" />
      <path d="m71.36-17.09q3.203 0 5.094 2.531 1.688 2.266 1.688 5.797 0 4.094-2.172 6.438-1.844 2.016-4.641 2.016-3.25 0-5.125-2.562-1.656-2.25-1.656-5.797 0-4.094 2.156-6.422 1.844-2 4.656-2zm0 1.625q-2.375 0-3.641 2-1.125 1.766-1.125 4.734 0 3.438 1.438 5.25 1.25 1.547 3.297 1.547 2.359 0 3.641-2.016 1.125-1.781 1.125-4.781 0-3.391-1.438-5.188-1.25-1.547-3.297-1.547z" />
      <path d="m90.78-17.09-0.1562 1.984q-1.688 0-3.125 1.453-1.344 1.344-2.031 3.578v9.375h-1.953v-16h1.891v4.156q0.9375-2.391 2.531-3.578 1.312-0.9688 2.844-0.9688z" />
      <path d="m107.7-8.547h-11.61q0 3.359 1.625 5.172 1.359 1.5 3.469 1.5 3.453 0 4.531-3.438l1.859 0.7031q-1.656 4.297-6.422 4.297-3.359 0-5.297-2.547-1.719-2.25-1.719-5.812 0-4.062 2.203-6.422 1.859-2 4.641-2 3.172 0 5.047 2.453 1.672 2.188 1.672 5.578zm-1.984-1.5q-0.2188-2.781-1.625-4.219-1.203-1.234-3.078-1.234-2.156 0-3.5 1.672-1.188 1.453-1.359 3.781z" />
      <path d="m120.3-17.09-0.1562 1.984q-1.688 0-3.125 1.453-1.344 1.344-2.031 3.578v9.375h-1.953v-16h1.891v4.156q0.9375-2.391 2.531-3.578 1.312-0.9688 2.844-0.9688z" />
      <path d="m124.9-3.969v3.266h-3.203v-3.266z" />
      <path d="m143.2-8.547h-11.61q0 3.359 1.625 5.172 1.359 1.5 3.469 1.5 3.453 0 4.531-3.438l1.859 0.7031q-1.656 4.297-6.422 4.297-3.359 0-5.297-2.547-1.719-2.25-1.719-5.812 0-4.062 2.203-6.422 1.859-2 4.641-2 3.172 0 5.047 2.453 1.672 2.188 1.672 5.578zm-1.984-1.5q-0.2188-2.781-1.625-4.219-1.203-1.234-3.078-1.234-2.156 0-3.5 1.672-1.188 1.453-1.359 3.781z" />
      <path d="m159.3-16.7-5.078 7.719 5.531 8.281h-2.25l-3.547-5.531q-0.1719-0.2812-0.4688-0.7344-0.2656-0.4375-0.4219-0.6719-0.3281 0.5-0.9062 1.406l-3.453 5.531h-2.172l5.438-8.219-5.156-7.781h2.25l3.172 5.062q0.4219 0.6875 0.9531 1.438l0.9219-1.578 3.016-4.922z" />
      <path d="m176.7-8.547h-11.61q0 3.359 1.625 5.172 1.359 1.5 3.469 1.5 3.453 0 4.531-3.438l1.859 0.7031q-1.656 4.297-6.422 4.297-3.359 0-5.297-2.547-1.719-2.25-1.719-5.812 0-4.062 2.203-6.422 1.859-2 4.641-2 3.172 0 5.047 2.453 1.672 2.188 1.672 5.578zm-1.984-1.5q-0.2188-2.781-1.625-4.219-1.203-1.234-3.078-1.234-2.156 0-3.5 1.672-1.188 1.453-1.359 3.781z" />
    </g>
    <path d="m-13.1 140.7c-0.5477 0-0.9782-0.4657-0.9782-1.027s0.4434-1.027 0.9782-1.027c0.5477 0 0.9782 0.4657 0.9782 1.027s-0.4434 1.027-0.9782 1.027zm2.204-1.671c-0.05212-0.1918-0.1175-0.3699-0.2088-0.5342l0.2088-0.6437-0.4696-0.4929-0.6128 0.2191c-0.1566-0.0958-0.3262-0.1643-0.5088-0.2191l-0.2871-0.6027h-0.6519l-0.2871 0.6027c-0.1826 0.0548-0.3522 0.1233-0.5085 0.2191l-0.613-0.2191-0.4696 0.4929 0.2088 0.6437c-0.09128 0.1643-0.1566 0.3424-0.2088 0.5342l-0.5739 0.3014v0.6847l0.5739 0.3014c0.05212 0.1918 0.1175 0.3699 0.2088 0.5342l-0.2088 0.6437 0.4564 0.4792 0.613-0.2191c0.1566 0.096 0.3262 0.1643 0.5088 0.2191l0.2868 0.6027h0.6522l0.2871-0.6027c0.1826-0.0548 0.3522-0.123 0.5085-0.2191l0.613 0.2191 0.4696-0.4792-0.2088-0.6437c0.09128-0.1643 0.1696-0.3561 0.2217-0.5342l0.5739-0.3014v-0.6847z" fill-rule="evenodd" stroke-width=".2646" />
    <path d="m-16.14 145.6c-0.5739 0-1.025-0.4445-1.025-0.9805 0-0.5493 0.4646-0.9806 1.025-0.9806 0.5739 0 1.025 0.4445 1.025 0.9806 0 0.536-0.4508 0.9805-1.025 0.9805zm2.09-2.105 0.2188-0.6144-0.4919-0.4707-0.6424 0.2093c-0.1638-0.0915-0.3551-0.1569-0.5329-0.2093l-0.3006-0.5752h-0.6832l-0.3006 0.5752c-0.1913 0.0524-0.3691 0.1177-0.5329 0.2093l-0.6424-0.2093-0.4781 0.4577 0.2051 0.6144c-0.09578 0.1569-0.164 0.34-0.2188 0.5099l-0.6011 0.2876v0.6538l0.6011 0.2876c0.05477 0.1828 0.123 0.353 0.2188 0.5099l-0.2051 0.6144 0.4781 0.4575 0.6424-0.196c0.1638 0.0915 0.3416 0.1569 0.5329 0.2093l0.3006 0.5752h0.6832l0.3006-0.5752c0.1913-0.0524 0.3691-0.1177 0.5329-0.2093l0.6424 0.2093 0.4781-0.4707-0.2051-0.6014c0.09578-0.1569 0.164-0.3268 0.2188-0.5098l0.6011-0.2876v-0.6538l-0.6011-0.2876c-0.05477-0.1828-0.123-0.353-0.2188-0.5098z" fill-rule="evenodd" stroke-width=".2646" />
    <g transform="matrix(.2646 0 0 .2646 -7.789 144.5)" aria-label="プログラム">
      <path d="m21.23-20.33q1.043 0 1.734 0.7617 0.5977 0.668 0.5977 1.57 0 1.031-0.7617 1.723-0.668 0.6094-1.57 0.6094-1.02 0-1.711-0.7734-0.6094-0.668-0.6094-1.559 0-1.043 0.7734-1.734 0.668-0.5977 1.547-0.5977zm0 0.8438q-0.6562 0-1.09 0.4805-0.3867 0.4219-0.3867 1.008 0 0.6562 0.4922 1.102 0.4219 0.3867 0.9844 0.3867 0.6797 0 1.113-0.4922 0.375-0.4219 0.375-0.9961 0-0.6797-0.4805-1.113-0.4219-0.375-1.008-0.375zm-17.66 3.844q1.957 0.1406 4.605 0.1406h8.473q0.7148 0 1.102-0.1875 0.1289-0.07031 0.2812-0.07031 0.1875 0 0.3281 0.09375 0.5039 0.3867 0.8555 0.8086 0.1055 0.1289 0.1055 0.2812 0 0.1875-0.1523 0.3164-0.3281 0.293-0.5273 0.7969-1.582 4.289-4.723 7.898-3.082 3.504-7.16 5.754-0.1523 0.09375-0.3047 0.09375-0.1992 0-0.3398-0.1406-0.293-0.3281-0.9375-0.668 2.719-1.348 4.699-2.965 1.383-1.125 2.93-2.848 3.258-3.691 4.688-7.992h-9.34q-2.355 0-4.078 0.1289-0.04688 0-0.09375 0-0.2812 0-0.3398-0.3633-0.07031-0.8672-0.07031-1.078z" />
      <path d="m41.41-3.504h-10.84v1.723q0 0.293-0.2695 0.293-0.6445 0-0.8789-0.02344-0.2695 0-0.2695-0.2695 0.09375-2.18 0.09375-4.5v-5.145q0-2.496-0.04687-3.773 0-0.2344 0.2461-0.2344 1.195 0.04687 3.715 0.04687h5.227q2.836 0 4.125-0.04687 0.2695 0 0.2695 0.2812-0.04687 2.367-0.04687 3.75v5.168q0 1.805 0.09375 4.195 0 0.293-0.2695 0.293h-0.9375q-0.2109 0-0.2109-0.293zm0-1.148v-9.563h-10.86v9.563z" />
      <path d="m65.93-17.86 0.7266-0.5039q0.05859-0.03516 0.09375-0.03516t0.09375 0.03516q1.383 0.9375 2.707 2.906 0.04687 0.04687 0.04687 0.09375 0 0.04687-0.07031 0.1172l-0.5742 0.4805q-0.04687 0.05859-0.1055 0.05859-0.08203 0-0.1523-0.1055-1.219-1.922-2.766-3.047zm2.016-1.488 0.6328-0.4805q0.07031-0.05859 0.1172-0.05859 0.04687 0 0.09375 0.03516 1.629 1.184 2.719 2.754 0.03516 0.07031 0.03516 0.1289 0 0.07031-0.09375 0.1406l-0.5508 0.4805q-0.05859 0.03516-0.1055 0.03516-0.07031 0-0.1289-0.09375-1.16-1.781-2.719-2.941zm-9.598 4.488 5.859-0.1172q0.8086-0.03516 1.102-0.2227 0.09375-0.04687 0.1992-0.04687 0.1758 0 0.375 0.1289 0.293 0.1875 0.7266 0.6211 0.1758 0.1992 0.1758 0.375 0 0.1406-0.1055 0.2461-0.4102 0.3633-0.5508 0.75-2.238 4.746-4.641 7.5-3.387 3.926-7.512 6.27-0.08203 0.05859-0.1641 0.05859-0.1055 0-0.2109-0.1055-0.457-0.4453-1.113-0.5977 2.695-1.465 4.676-3.117 1.641-1.371 3.246-3.246 2.555-2.977 4.535-7.488l-7.266 0.1641q-2.215 3.012-4.805 5.215-0.1523 0.1289-0.2812 0.1289-0.1055 0-0.2227-0.08203-0.4922-0.3398-1.055-0.4336 3.879-3.117 6.094-6.844 1.055-1.711 1.23-2.953 1.008 0.3281 1.512 0.75 0.1641 0.1172 0.1641 0.2578t-0.1641 0.2695q-0.4453 0.3164-0.7734 0.8906-0.5977 1.008-1.031 1.629z" />
      <path d="m78.43-17.43q1.641 0.1406 3.891 0.1406h3.504q2.051 0 3.691-0.1055 0.03516 0 0.07031 0 0.1641 0 0.1641 0.2461 0.02344 0.1641 0.02344 0.3984t-0.02344 0.4102q0 0.2695-0.2578 0.2695-1.816-0.07031-3.621-0.07031h-3.598q-2.062 0-3.48 0.09375-0.2578 0-0.293-0.2812-0.07031-0.8672-0.07031-1.102zm-2.039 4.969q1.758 0.1406 4.195 0.1406h8.379q0.8789 0 1.102-0.1406 0.1406-0.08203 0.293-0.08203 0.1992 0 0.3516 0.1289 0.457 0.3633 0.6562 0.6211 0.1172 0.1758 0.1172 0.3281 0 0.1641-0.1523 0.2695-0.3281 0.2461-0.5039 0.6445-3.105 7.301-10.14 10.95-0.1641 0.08203-0.2812 0.08203-0.1289 0-0.2227-0.1055-0.4219-0.4219-1.066-0.668 7.711-3.656 10.49-10.88h-9.023q-1.617 0-3.715 0.1641-0.03516 0.01172-0.08203 0.01172-0.1992 0-0.2578-0.2461-0.1172-0.7852-0.1406-1.219z" />
      <path d="m106.8-18.09q1.113 0.2812 1.793 0.7148 0.1406 0.09375 0.1406 0.2461 0 0.1758-0.1875 0.375-0.4922 0.5039-0.8906 1.711-2.016 6.246-4.582 11.98 5.953-0.3984 10.88-1.172-1.254-2.297-3-4.324 0.6562-0.4219 0.8203-0.5039 0.1172-0.07031 0.1992-0.07031 0.1172 0 0.2344 0.1641 2.402 2.824 4.559 7.277 0.0469 0.08203 0.0469 0.1523 0 0.1289-0.1406 0.2227-0.3633 0.2344-0.8203 0.457-0.0703 0.03516-0.1172 0.03516-0.1406 0-0.2461-0.2227-0.457-1.125-1.008-2.086-5.379 0.8203-11.98 1.441-1.934 0.1758-2.449 0.5039-0.1641 0.1172-0.3281 0.1172-0.2109 0-0.293-0.1875-0.2344-0.5977-0.5039-1.664 0.5625 0.05859 1.207 0.05859 0.6562 0 1.582-0.05859 2.789-6.398 4.512-12.05 0.5391-1.863 0.5742-3.117z" />
    </g>
    <path d="m-14.68 170.8c-0.8607 0-1.537-0.6773-1.537-1.494 0-0.8369 0.6969-1.494 1.537-1.494 0.861 0 1.537 0.6773 1.537 1.494s-0.6763 1.494-1.537 1.494zm3.136-3.208 0.3281-0.9361-0.7379-0.7173-0.9633 0.3188c-0.2461-0.1394-0.5329-0.2392-0.7993-0.3188l-0.4508-0.8766h-1.025l-0.4508 0.8766c-0.2868 0.0796-0.5532 0.1794-0.7993 0.3188l-0.9633-0.3188-0.7173 0.6972 0.3074 0.9364c-0.1434 0.2392-0.2461 0.5181-0.3281 0.7771l-0.9017 0.4382v0.9962l0.9017 0.4382c0.08202 0.2789 0.1847 0.5379 0.3281 0.7771l-0.3074 0.9364 0.7173 0.6972 0.9633-0.299c0.2461 0.1394 0.5125 0.2392 0.7993 0.3188l0.4508 0.8766h1.025l0.4508-0.8766c0.2868-0.0796 0.5532-0.1794 0.7993-0.3188l0.9633 0.3188 0.7173-0.717-0.3074-0.9165c0.1434-0.2392 0.2461-0.4979 0.3281-0.7768l0.9017-0.4384v-0.9962l-0.9017-0.4382c-0.08202-0.2789-0.1847-0.5379-0.3281-0.7771z" fill-rule="evenodd" stroke-width=".2646" />
    <g transform="matrix(.2646 0 0 .2646 -8.038 172.2)" aria-label="CreateProcess">
      <path d="m15.02-13.49-1.559 0.4805q-1.008-3.961-4.594-3.961-2.613 0-4.125 2.262-1.395 2.062-1.395 5.437 0 3.855 1.793 5.965 1.488 1.746 3.727 1.746 3.773 0 4.758-4.031l1.535 0.5742q-1.5 4.828-6.316 4.828-3.34 0-5.344-2.695-1.828-2.449-1.828-6.352 0-4.5 2.355-7.02 1.945-2.086 4.816-2.086 2.484 0 4.148 1.465 1.43 1.254 2.027 3.387z" />
      <path d="m24.21-12.82-0.1172 1.488q-1.266 0-2.344 1.09-1.008 1.008-1.523 2.684v7.031h-1.465v-12h1.418v3.117q0.7031-1.793 1.898-2.684 0.9844-0.7266 2.133-0.7266z" />
      <path d="m36.88-6.41h-8.707q0 2.52 1.219 3.879 1.02 1.125 2.602 1.125 2.59 0 3.398-2.578l1.395 0.5273q-1.242 3.223-4.816 3.223-2.52 0-3.973-1.91-1.289-1.688-1.289-4.359 0-3.047 1.652-4.816 1.395-1.5 3.48-1.5 2.379 0 3.785 1.84 1.254 1.641 1.254 4.184zm-1.488-1.125q-0.1641-2.086-1.219-3.164-0.9023-0.9258-2.309-0.9258-1.617 0-2.625 1.254-0.8906 1.09-1.02 2.836z" />
      <path d="m40.55-9.738q1.078-3.082 4.723-3.082 4.254 0 4.254 3.984v4.23q0 2.402 0.293 4.078h-1.395q-0.1523-0.6914-0.2695-2.109-1.582 2.402-4.336 2.402-1.91 0-2.918-1.102-0.8555-0.9258-0.8555-2.379 0-3.258 4.055-3.937 1.582-0.2695 3.984-0.3867v-0.6445q0-1.711-0.75-2.379-0.6562-0.5859-2.086-0.5859-2.578 0-3.305 2.414zm7.535 2.801q-1.805 0.03516-3.668 0.3867-2.883 0.5859-2.883 2.766 0 1.172 0.75 1.805 0.668 0.5742 1.793 0.5742 2.414 0 4.008-2.602z" />
      <path d="m56.38-16.83v4.301h3.023v1.195h-3.023v7.805q0 2.121 1.781 2.121 0.7734 0 1.559-0.1758l-0.1055 1.219q-0.75 0.1289-1.699 0.1289-3.023 0-3.023-3v-8.098h-2.062v-1.195h2.062v-3.961z" />
      <path d="m72.13-6.41h-8.707q0 2.52 1.219 3.879 1.02 1.125 2.602 1.125 2.59 0 3.398-2.578l1.395 0.5273q-1.242 3.223-4.816 3.223-2.52 0-3.973-1.91-1.289-1.688-1.289-4.359 0-3.047 1.652-4.816 1.395-1.5 3.48-1.5 2.379 0 3.785 1.84 1.254 1.641 1.254 4.184zm-1.488-1.125q-0.1641-2.086-1.219-3.164-0.9023-0.9258-2.309-0.9258-1.617 0-2.625 1.254-0.8906 1.09-1.02 2.836z" />
      <path d="m76.44-18.02h5.637q3.152 0 4.664 1.418 1.289 1.207 1.289 3.363 0 2.438-1.77 3.738-1.594 1.16-4.324 1.16h-3.914v7.816h-1.582zm1.582 1.324v7.055h3.82q4.535 0 4.535-3.574 0-3.48-4.395-3.48z" />
      <path d="m97.1-12.82-0.1172 1.488q-1.266 0-2.344 1.09-1.008 1.008-1.523 2.684v7.031h-1.465v-12h1.418v3.117q0.7031-1.793 1.898-2.684 0.9844-0.7266 2.133-0.7266z" />
      <path d="m104.7-12.82q2.402 0 3.82 1.898 1.266 1.699 1.266 4.348 0 3.07-1.629 4.828-1.383 1.512-3.48 1.512-2.438 0-3.844-1.922-1.242-1.688-1.242-4.348 0-3.07 1.617-4.816 1.383-1.5 3.492-1.5zm0 1.219q-1.781 0-2.73 1.5-0.8438 1.324-0.8438 3.551 0 2.578 1.078 3.937 0.9375 1.16 2.473 1.16 1.77 0 2.73-1.512 0.8438-1.336 0.8438-3.586 0-2.543-1.078-3.891-0.9375-1.16-2.473-1.16z" />
      <path d="m122.6-9.387-1.465 0.4336q-0.6445-2.648-3.047-2.648-1.77 0-2.73 1.5-0.8438 1.336-0.8438 3.551 0 2.578 1.102 3.937 0.9375 1.16 2.473 1.16 2.531 0 3.176-2.695l1.43 0.4805q-1.125 3.434-4.605 3.434-2.484 0-3.879-1.91-1.23-1.676-1.23-4.359 0-3.07 1.605-4.816 1.383-1.5 3.504-1.5 1.77 0 2.965 0.9844 1.09 0.8789 1.547 2.449z" />
      <path d="m135.6-6.41h-8.707q0 2.52 1.219 3.879 1.02 1.125 2.602 1.125 2.59 0 3.398-2.578l1.395 0.5273q-1.242 3.223-4.816 3.223-2.52 0-3.973-1.91-1.289-1.688-1.289-4.359 0-3.047 1.652-4.816 1.395-1.5 3.48-1.5 2.379 0 3.785 1.84 1.254 1.641 1.254 4.184zm-1.488-1.125q-0.1641-2.086-1.219-3.164-0.9023-0.9258-2.309-0.9258-1.617 0-2.625 1.254-0.8906 1.09-1.02 2.836z" />
      <path d="m147.6-9.984-1.441 0.5039q-0.6797-2.168-2.93-2.168-1.359 0-2.098 0.5977-0.6328 0.5156-0.6328 1.324 0 1.008 0.6328 1.488 0.5625 0.4336 2.004 0.75l0.9609 0.2109q2.227 0.5156 3.059 1.359 0.7617 0.7617 0.7617 2.156 0 1.652-1.277 2.613-1.207 0.9141-3.281 0.9141-3.621 0-4.734-2.906l1.441-0.5508q0.7969 2.285 3.316 2.285 1.664 0 2.461-0.7617 0.6094-0.5859 0.6094-1.453 0-1.113-0.6328-1.605-0.5977-0.457-2.227-0.8203l-0.9609-0.2227q-2.121-0.4805-2.906-1.359-0.6445-0.7148-0.6445-1.969 0-1.512 1.184-2.391 1.102-0.832 2.988-0.832 3.246 0 4.348 2.836z" />
      <path d="m159.8-9.984-1.441 0.5039q-0.6797-2.168-2.93-2.168-1.359 0-2.098 0.5977-0.6328 0.5156-0.6328 1.324 0 1.008 0.6328 1.488 0.5625 0.4336 2.004 0.75l0.9609 0.2109q2.227 0.5156 3.059 1.359 0.7617 0.7617 0.7617 2.156 0 1.652-1.277 2.613-1.207 0.9141-3.281 0.9141-3.621 0-4.734-2.906l1.441-0.5508q0.7969 2.285 3.316 2.285 1.664 0 2.461-0.7617 0.6094-0.5859 0.6094-1.453 0-1.113-0.6328-1.605-0.5977-0.457-2.227-0.8203l-0.9609-0.2227q-2.121-0.4805-2.906-1.359-0.6445-0.7148-0.6445-1.969 0-1.512 1.184-2.391 1.102-0.832 2.988-0.832 3.246 0 4.348 2.836z" />
    </g>
    <path d="m-14.02 149v12.35h-1.058v-12.35zm1.058 11.83-1.588 3.175-1.588-3.175z" stroke-width=".2646" />
    <g transform="matrix(.2646 0 0 .2646 -10.78 157.4)" aria-label="呼び出し">
      <path d="m14.86-7.148h-2.637l-3.34 0.04688q-0.1641 0-0.1641-0.1641v-0.8203q0-0.1406 0.1641-0.1406l3.34 0.04688h2.637v-8.859q-2.578 0.4102-4.828 0.5977-0.03516 0-0.1172 0.01172-0.05859 0-0.09375 0-0.1875 0-0.3164-0.3398-0.1289-0.3867-0.4336-0.668 5.391-0.2812 9.047-1.348 1.219-0.3516 1.734-0.75 0.5156 0.3281 0.9609 0.7031 0.1406 0.1406 0.1406 0.3047 0 0.1992-0.3398 0.1992-0.2578 0-1.219 0.2812-1.488 0.4219-3.41 0.7969v9.07h3.047l3.34-0.04688q0.1641 0 0.1641 0.1406v0.8203q0 0.1641-0.1641 0.1641l-3.34-0.04688h-3.047v3.047l0.02344 3.047q0 1.289-0.6211 1.758-0.375 0.2578-0.8555 0.3398-0.4688 0.07031-1.582 0.07031-0.3047 0-0.6797 0-0.3047 0-0.375-0.05859-0.05859-0.05859-0.1289-0.3281-0.1172-0.457-0.4102-0.8672 0.9609 0.1172 2.203 0.1172 0.8086 0 1.055-0.2578 0.2461-0.2461 0.2461-0.9609zm-11.7 0.4102v2.355q0 0.1641-0.1641 0.1641h-0.7734q-0.1641 0-0.1641-0.1641l0.04688-5.531v-3.211l-0.04688-4.043q0-0.1641 0.1641-0.1641l1.922 0.04687h1.512l1.922-0.04687q0.1641 0 0.1641 0.1641l-0.04688 3.457v3.316l0.04688 5.215q0 0.1758-0.1641 0.1758h-0.75q-0.1641 0-0.1641-0.1758v-1.559zm0-0.9844h3.504v-8.555h-3.504zm14.7-2.449q1.172-1.875 2.086-4.207 0.1523-0.3984 0.2344-1.078 0.6562 0.2109 1.055 0.4102 0.2695 0.1289 0.2695 0.2812 0 0.1055-0.1875 0.2695-0.2578 0.2109-0.4336 0.668-0.8203 2.004-1.852 3.703-0.1523 0.2695-0.2461 0.2695-0.05859 0-0.3047-0.1289-0.2461-0.1406-0.6211-0.1875zm-7.992-4.324q-0.03516-0.07031-0.03516-0.09375 0-0.05859 0.2695-0.1758l0.3867-0.1406q0.1406-0.05859 0.1992-0.05859 0.07031 0 0.1406 0.1055 1.066 1.934 1.723 4.23 0.01172 0.04687 0.01172 0.05859 0 0.08203-0.3047 0.1992l-0.3281 0.1289q-0.2578 0.1055-0.3164 0.1055-0.08203 0-0.1172-0.1406-0.5273-2.18-1.629-4.219z" />
      <path d="m41.72-17.99 0.7148-0.5039q0.05859-0.03516 0.09375-0.03516 0.04687 0 0.09375 0.03516 1.383 0.9375 2.707 2.906 0.04687 0.04687 0.04687 0.09375 0 0.04687-0.05859 0.1172l-0.5742 0.4805q-0.05859 0.04687-0.1172 0.04687-0.07031 0-0.1523-0.1055-1.207-1.91-2.754-3.035zm2.016-1.488 0.6211-0.4805q0.07031-0.05859 0.1289-0.05859 0.03516 0 0.08203 0.03516 1.629 1.184 2.719 2.754 0.03516 0.07031 0.03516 0.1289 0 0.07031-0.08203 0.1406l-0.5625 0.4805q-0.04687 0.03516-0.09375 0.03516-0.07031 0-0.1406-0.09375-1.148-1.781-2.707-2.941zm-16.78 3.281q0.4688 0.1289 1.359 0.1289 0.457 0 1.02-0.03516 1.008-0.09375 3.164-0.457 1.043-0.1875 1.441-0.5156 0.1172-0.1055 0.2227-0.1055 0.08203 0 0.1875 0.08203 0.4219 0.293 0.6445 0.5508 0.1406 0.1523 0.1406 0.293 0 0.1758-0.2578 0.2812-0.6094 0.2344-1.359 0.9492-0.2812 0.2812-1.219 1.277-3.141 3.422-3.141 7.875 0 2.531 1.219 3.855 1.09 1.184 2.988 1.184 1.582 0 2.625-0.4805 1.031-0.4922 1.91-1.582 2.039-2.59 2.039-7.875 0-2.227-0.2109-3.609-0.02344-0.08203-0.2695-1.172-0.1172-0.3867-0.2344-0.6914-0.03516-0.09375-0.03516-0.1523 0-0.1406 0.1523-0.1875 0.3281-0.1172 0.7969-0.2109 0.03516-0.01172 0.07031-0.01172 0.1875 0 0.2109 0.1523 0.5039 1.898 1.805 4.184 1.43 2.52 3.902 4.992 0.07031 0.07031 0.07031 0.1406 0 0.07031-0.09375 0.2227-0.2227 0.293-0.5742 0.6445-0.07031 0.05859-0.1406 0.05859-0.09375 0-0.1992-0.1289-2.613-2.824-4.359-6.75l-0.1172 0.02344q0.2344 1.98 0.2344 3.598 0 2.496-0.6094 4.582-0.6211 2.121-1.77 3.363-2.004 2.133-4.969 2.133-2.906 0-4.383-1.91-1.254-1.629-1.254-4.371 0-3.961 2.613-7.418 0.9961-1.312 2.168-2.332l-4.301 0.75q-0.1992 0.03516-0.5039 0.1406-0.2109 0.07031-0.293 0.07031-0.1875 0-0.3047-0.293-0.2461-0.5859-0.3867-1.242z" />
      <path d="m59.2-1.219v-8.426h-6.047v1.277q0 0.1641-0.1641 0.1641h-0.8203q-0.1641 0-0.1641-0.1641l0.04687-2.098v-3.164q0-2.027-0.1758-2.977 0.7617 0.03516 1.277 0.1406 0.2344 0.04687 0.2344 0.1992 0 0.09375-0.09375 0.3867-0.1406 0.3867-0.1406 2.227v2.977h6.047v-6.023q0-2.145-0.1641-3.07 0.5977 0.02344 1.289 0.1172 0.2695 0.04687 0.2695 0.1875 0 0.05859-0.09375 0.4336-0.1758 0.6211-0.1758 2.285v6.07h6.504v-3.117q0-2.027-0.1641-2.977 0.7148 0.03516 1.266 0.1406 0.2695 0.04687 0.2695 0.1992 0 0.08203-0.09375 0.375-0.1758 0.668-0.1758 2.262v3.188l0.04687 2.18q0 0.1758-0.1641 0.1758h-0.8086q-0.1758 0-0.1758-0.1758v-1.219h-6.504v8.426h7.16v-2.402q0-2.004-0.1758-2.953 0.7734 0.03516 1.277 0.1523 0.2695 0.03516 0.2695 0.1641 0 0.07031-0.09375 0.4102-0.1758 0.6094-0.1758 2.227v2.813l0.04687 2.016q0 0.1641-0.1406 0.1641h-0.8438q-0.1641 0-0.1641-0.1641v-1.395h-15.01v1.465q0 0.1641-0.1641 0.1641h-0.8203q-0.1641 0-0.1641-0.1641l0.04688-1.945v-2.789q0-2.016-0.1641-2.941 0.7734 0.03516 1.266 0.1406 0.2695 0.04688 0.2695 0.1875 0 0.05859-0.09375 0.3867-0.1758 0.4688-0.1758 2.18v2.285z" />
      <path d="m78.88-18.34q1.055 0.1289 1.699 0.3164 0.3164 0.1055 0.3164 0.3398 0 0.07031-0.1875 0.5508-0.1758 0.3867-0.293 2.32-0.375 7.184-0.375 10.25 0 2.285 0.7969 3.105 0.668 0.6914 2.227 0.6914 4.535 0 8.543-4.523 0.1055 0.6328 0.3633 1.102 0.07031 0.1523 0.07031 0.2461 0 0.1172-0.2109 0.3398-4.172 4.078-9.035 4.078-2.227 0-3.188-1.242-0.8906-1.148-0.8906-3.586 0-1.688 0.3633-10.61 0.03516-0.75 0.03516-1.266 0-1.184-0.2344-2.121z" />
    </g>
    <path d="m-18.26 155.3 36.41 0.0585" fill="none" fill-rule="evenodd" stroke="#f00" stroke-miterlimit="8" stroke-width="1.058" />
    <g transform="matrix(.2646 0 0 .2646 201.1 129.4)" aria-label="R2DB.exe">
      <path d="m3.609-24.03h7.641q7.875 0 7.875 5.984 0 2.359-1.469 3.922-1.312 1.422-3.656 1.938l5.703 11.48h-2.328l-5.359-11.16q-0.375 0.03125-1.234 0.03125h-5.094v11.12h-2.078zm2.078 1.766v8.703h5.219q6.016 0 6.016-4.453 0-2.281-1.516-3.297-1.422-0.9531-4.312-0.9531z" />
      <path d="m23.73-17.98q0.6406-3.156 2.641-4.719 1.688-1.328 4.156-1.328 2.938 0 4.656 1.766 1.547 1.578 1.547 4.125 0 2.047-1.109 3.766-1.047 1.594-3.719 4-4.516 3.953-6.344 7.906h11.2v1.766h-13.22v-1.578q1.984-4.75 6.922-9.266 2.625-2.453 3.453-3.891 0.7031-1.219 0.7031-2.703 0-2.047-1.297-3.172-1.109-0.9531-2.828-0.9531-3.938 0-4.75 4.797z" />
      <path d="m42.86-24.03h6.906q5.625 0 8.484 3.234 2.594 2.938 2.594 8.312 0 6.125-3.609 9.219-2.969 2.562-7.875 2.562h-6.5zm2.109 1.797v19.73h4.328q4.656 0 7.062-2.719 2.25-2.547 2.25-7.234 0-9.781-9.031-9.781z" />
      <path d="m66.73-24.03h7.453q4.281 0 6.141 1.656 1.547 1.391 1.547 4.016 0 2.234-1.625 3.656-1.375 1.219-3.656 1.547v0.1719q3.062 0.375 4.641 2.078 1.375 1.484 1.375 3.703 0 3.297-2.406 5.016-2.078 1.484-5.562 1.484h-7.906zm2.078 1.766v8.344h4.547q3.266 0 4.938-1.328 1.406-1.125 1.406-2.984 0-2.25-1.438-3.172-1.359-0.8594-4.359-0.8594zm0 10.11v9.688h5.531q6.062 0 6.062-4.797 0-2.391-2-3.703-1.828-1.188-4.922-1.188z" />
      <path d="m90.61-3.969v3.266h-3.203v-3.266z" />
      <path d="m108.9-8.547h-11.61q0 3.359 1.625 5.172 1.359 1.5 3.469 1.5 3.453 0 4.531-3.438l1.859 0.7031q-1.656 4.297-6.422 4.297-3.359 0-5.297-2.547-1.719-2.25-1.719-5.812 0-4.062 2.203-6.422 1.859-2 4.641-2 3.172 0 5.047 2.453 1.672 2.188 1.672 5.578zm-1.984-1.5q-0.2188-2.781-1.625-4.219-1.203-1.234-3.078-1.234-2.156 0-3.5 1.672-1.188 1.453-1.359 3.781z" />
      <path d="m125-16.7-5.078 7.719 5.531 8.281h-2.25l-3.547-5.531q-0.1719-0.2812-0.4688-0.7344-0.2656-0.4375-0.4219-0.6719-0.3281 0.5-0.9062 1.406l-3.453 5.531h-2.172l5.438-8.219-5.156-7.781h2.25l3.172 5.062q0.4219 0.6875 0.9531 1.438l0.9219-1.578 3.016-4.922z" />
      <path d="m142.4-8.547h-11.61q0 3.359 1.625 5.172 1.359 1.5 3.469 1.5 3.453 0 4.531-3.438l1.859 0.7031q-1.656 4.297-6.422 4.297-3.359 0-5.297-2.547-1.719-2.25-1.719-5.812 0-4.062 2.203-6.422 1.859-2 4.641-2 3.172 0 5.047 2.453 1.672 2.188 1.672 5.578zm-1.984-1.5q-0.2188-2.781-1.625-4.219-1.203-1.234-3.078-1.234-2.156 0-3.5 1.672-1.188 1.453-1.359 3.781z" />
    </g>
    <path d="m174.4 125.9-31.03 2e-5v1.588l31.03-2e-5zm-30.24-1.587-4.762 2.381 4.762 2.381z" fill="#f00" stroke-width=".2646" />
    <g transform="matrix(.2646 0 0 .2646 146.5 135.5)" fill="#f00" aria-label="①侵入">
      <path d="m18.14-22.19v17.22h3.906v2.594h-11.3v-2.594h4.156v-13.92q-1.609 1.094-3.969 1.828l-0.5781-2.688q3.031-1.016 5.062-2.438zm-2.141-5.234q4.141 0 7.703 2.094 3.453 2.016 5.469 5.469 2.094 3.562 2.094 7.703t-2.094 7.703q-2.016 3.453-5.469 5.469-3.562 2.094-7.703 2.094t-7.703-2.094q-3.453-2.016-5.469-5.469-2.094-3.562-2.094-7.703t2.094-7.703q2.016-3.453 5.469-5.469 3.562-2.094 7.703-2.094zm0 1.062q-3.844 0-7.156 1.953-3.203 1.891-5.094 5.094-1.953 3.312-1.953 7.156t1.953 7.156q1.891 3.203 5.094 5.094 3.312 1.953 7.156 1.953t7.156-1.953q3.203-1.891 5.094-5.094 1.953-3.312 1.953-7.156t-1.953-7.156q-1.891-3.203-5.094-5.094-3.312-1.953-7.156-1.953z" />
      <path d="m57.38-13.56 4.484-0.0625q0.3281 0 0.3281 0.3438l-0.0625 1.25v0.9688l0.0625 2.672q0 0.3594-0.3281 0.3594h-2.594q-0.2344 0-0.2812-0.0625-0.03125-0.04688-0.03125-0.2969v-2.484h-14.34v1.531q0.6719 0.0625 3.906 0.0625h7.656q0.4375 0 0.7656-0.125 0.1875-0.09375 0.375-0.09375 0.3281 0 1.156 0.8594 0.9375 1.016 0.9375 1.281 0 0.3125-0.3594 0.5156-0.3438 0.2188-0.8906 0.8594-1.641 2.094-3.328 3.453 3.328 1.359 8.188 1.828-0.6406 0.8594-1.031 2.078-0.1875 0.5938-0.2969 0.75-0.1406 0.1562-0.4062 0.1562-0.1719 0-0.6719-0.07812-5.188-0.8125-8.703-2.844-3.312 1.766-8.734 2.953-0.5 0.09375-0.6719 0.09375-0.3906 0-0.7031-0.875-0.4062-1.031-1.156-1.953 5.375-0.7344 8.578-2.047-2.047-1.719-3.766-4.188-0.5781 0.03125-0.9688 0.03125-0.25 0-0.2969-0.0625-0.04687-0.0625-0.04687-0.2812v-0.9062h-2.344q-0.2812 0-0.3281-0.0625-0.04688-0.0625-0.04688-0.2812l0.0625-2.75v-0.7969l-0.0625-1.516q0-0.25 0.0625-0.2969 0.0625-0.04687 0.3125-0.04687l4.484 0.0625zm-2.422 6.875h-6.016q1.297 1.594 3.094 2.75 1.578-1.047 2.922-2.75zm1.375-16.25h-8.219l-4.047 0.0625q-0.25 0-0.2969-0.0625t-0.04688-0.2812v-2q0-0.25 0.0625-0.2969 0.0625-0.04687 0.2812-0.04687l4.047 0.0625h6.484l4.672-0.0625q0.25 0 0.3125 0.0625 0.04687 0.0625 0.04687 0.2969l-0.0625 2.969v3.844l0.0625 3.062q0 0.2812-0.07813 0.3438-0.04687 0.04687-0.2812 0.04687l-4.672-0.0625h-7.031l-3.562 0.0625q-0.25 0-0.2969-0.07813-0.04687-0.0625-0.04687-0.2969v-1.906q0-0.25 0.0625-0.2969 0.0625-0.04687 0.2812-0.04687l3.562 0.0625h8.766v-1.5h-7.688l-3.703 0.0625q-0.25 0-0.3125-0.07813-0.04687-0.0625-0.04687-0.3125v-1.828q0-0.25 0.0625-0.2969 0.0625-0.04687 0.2969-0.04687l3.703 0.0625h7.688zm-23.61 8.531q3.797-4.391 5.797-10.2 0.3906-1.156 0.4844-2.234 1.875 0.4219 3.062 0.9219 0.5156 0.1875 0.5156 0.4844 0 0.25-0.3281 0.5781-0.3125 0.2656-0.6719 1.312-0.875 2.438-1.844 4.375v16.45l0.0625 4.859q0 0.25-0.07813 0.3125-0.04687 0.04688-0.2812 0.04688h-2.656q-0.25 0-0.2969-0.0625t-0.04688-0.2969l0.0625-4.859v-6.938q0-2.703 0.03125-4.141-1.156 1.531-1.797 2.266-0.4062 0.4531-0.5781 0.4531-0.2188 0-0.3438-0.5469-0.4062-1.656-1.094-2.781z" />
      <path d="m65.47-0.9844q6.281-3.094 9.672-9.094 2.891-5.141 3.188-11.61h-3.969l-3.188 0.0625q-0.2812 0-0.3438-0.0625-0.04687-0.0625-0.04687-0.2812v-2.703q0-0.25 0.07813-0.2969 0.0625-0.04687 0.3125-0.04687l3.188 0.0625h4.094l3.203-0.0625q0.4219 0 0.4219 0.375-0.03125 0.4375-0.03125 0.8281 0 1 0.2188 2.734 1.516 13.17 12.45 19.78-1.203 1.125-1.891 2.422-0.375 0.7344-0.5781 0.7344-0.1562 0-0.7344-0.4219-8.578-6.313-10.97-15.86-1.391 5.266-4.781 9.609-2.953 3.812-7 6.312-0.6562 0.3906-0.7344 0.3906-0.1875 0-0.6719-0.7656-0.75-1.25-1.891-2.109z" />
    </g>
    <path d="m70.78 127.8c0-2.576 2.088-4.664 4.664-4.664h52.85c2.576 0 4.664 2.088 4.664 4.664v44.65c0 2.576-2.088 4.664-4.664 4.664h-52.85c-2.576 0-4.664-2.088-4.664-4.664z" fill="#ffe5e5" fill-rule="evenodd" stroke="#f00" stroke-miterlimit="8" stroke-width=".3528" />
    <g transform="matrix(.2646 0 0 .2646 -49.48 74.35)" clip-path="url(#clip4-6)">
      <g clip-path="url(#clip5-1)">
        <g clip-path="url(#clip6-0)">
          <path transform="matrix(1 0 0 1.018 468 200)" d="m56 28c0 15.46-12.54 28-28 28h-28v-28c0-15.46 12.54-28 28-28l28-2.018e-6z" />
          <path transform="matrix(1 0 0 1.018 468 200)" d="m15.58 28.01c-0.3934-0.0059-0.784 7e-3 -1.171 0.0376-5.417 0.4305-10.1 4.362-11.31 9.834-1.386 6.253 2.187 12.6 8.251 14.66 6.065 2.059 12.76-0.8015 15.47-6.606l-5.075-2.367c-1.519 3.258-5.19 4.825-8.593 3.67-2.912-0.9886-4.765-3.679-4.752-6.633h14v4e-3h5.6c0-6.405-4.862-11.83-11.23-12.52-0.3978-0.0436-0.7938-0.0679-1.187-0.0738zm-0.088 5.598c0.2202 0.0036 0.4422 0.0174 0.6655 0.0419 2.582 0.2828 4.69 1.914 5.66 4.154h-12.84c1.114-2.573 3.661-4.242 6.512-4.195z" fill="#fff" fill-opacity=".502" />
          <g fill="none" stroke="#fff">
            <path transform="matrix(1 0 0 1.018 493.2 71.39)" d="m24.28 145.9c-2.113 4.531-7.298 6.745-12.03 5.138-4.734-1.607-7.5-6.52-6.418-11.4 1.082-4.881 5.665-8.165 10.63-7.621 4.97 0.545 8.733 4.742 8.733 9.742" stroke-miterlimit="1" stroke-width="5.6" />
            <path transform="matrix(1 0 0 1.018 493.2 71.39)" d="m5.111 140.4h21.59" stroke-width="2.8" />
            <path transform="matrix(1 0 0 1.018 468 97.04)" d="m41.57 133.5c0 6.185-5.014 11.2-11.2 11.2" stroke-width="2.8" />
          </g>
          <path transform="matrix(1.276 0 0 1 482 165.2)" d="m18.08 70.43 3.291-5.7 3.291 5.7z" fill="#fff" />
        </g>
      </g>
    </g>
    <g transform="matrix(.2646 0 0 .2646 91.77 138.4)" aria-label="R2DB.dll">
      <path d="m3.609-24.03h7.641q7.875 0 7.875 5.984 0 2.359-1.469 3.922-1.312 1.422-3.656 1.938l5.703 11.48h-2.328l-5.359-11.16q-0.375 0.03125-1.234 0.03125h-5.094v11.12h-2.078zm2.078 1.766v8.703h5.219q6.016 0 6.016-4.453 0-2.281-1.516-3.297-1.422-0.9531-4.312-0.9531z" />
      <path d="m23.73-17.98q0.6406-3.156 2.641-4.719 1.688-1.328 4.156-1.328 2.938 0 4.656 1.766 1.547 1.578 1.547 4.125 0 2.047-1.109 3.766-1.047 1.594-3.719 4-4.516 3.953-6.344 7.906h11.2v1.766h-13.22v-1.578q1.984-4.75 6.922-9.266 2.625-2.453 3.453-3.891 0.7031-1.219 0.7031-2.703 0-2.047-1.297-3.172-1.109-0.9531-2.828-0.9531-3.938 0-4.75 4.797z" />
      <path d="m42.86-24.03h6.906q5.625 0 8.484 3.234 2.594 2.938 2.594 8.312 0 6.125-3.609 9.219-2.969 2.562-7.875 2.562h-6.5zm2.109 1.797v19.73h4.328q4.656 0 7.062-2.719 2.25-2.547 2.25-7.234 0-9.781-9.031-9.781z" />
      <path d="m66.73-24.03h7.453q4.281 0 6.141 1.656 1.547 1.391 1.547 4.016 0 2.234-1.625 3.656-1.375 1.219-3.656 1.547v0.1719q3.062 0.375 4.641 2.078 1.375 1.484 1.375 3.703 0 3.297-2.406 5.016-2.078 1.484-5.562 1.484h-7.906zm2.078 1.766v8.344h4.547q3.266 0 4.938-1.328 1.406-1.125 1.406-2.984 0-2.25-1.438-3.172-1.359-0.8594-4.359-0.8594zm0 10.11v9.688h5.531q6.062 0 6.062-4.797 0-2.391-2-3.703-1.828-1.188-4.922-1.188z" />
      <path d="m90.61-3.969v3.266h-3.203v-3.266z" />
      <path d="m108.5-24.45v23.75h-1.922v-2.469q-1.781 2.859-4.828 2.859-3.016 0-4.813-2.547-1.625-2.297-1.625-5.906 0-4.109 2.047-6.406 1.703-1.922 4.297-1.922 3 0 4.859 2.797v-10.16zm-1.984 12.3q-1.688-3.203-4.547-3.203-2.219 0-3.469 1.938-1.141 1.75-1.141 4.688 0 3.391 1.547 5.203 1.266 1.516 3.219 1.516 2.625 0 4.391-3.109z" />
      <path d="m116.8-24.45v23.75h-1.984v-23.75z" />
      <path d="m125.2-24.45v23.75h-1.984v-23.75z" />
    </g>
    <path d="m78.18 156.7c-0.8607 0-1.537-0.6985-1.537-1.541 0-0.8628 0.6969-1.541 1.537-1.541 0.861 0 1.537 0.6985 1.537 1.541 0 0.8422-0.6763 1.541-1.537 1.541zm3.136-3.308 0.3281-0.9655-0.7379-0.7398-0.9633 0.3289c-0.2461-0.1439-0.5329-0.2466-0.7993-0.3289l-0.4508-0.9038h-1.025l-0.4508 0.9038c-0.2868 0.0823-0.5532 0.1849-0.7993 0.3289l-0.9633-0.3289-0.7173 0.7191 0.3074 0.9657c-0.1434 0.2463-0.2461 0.5339-0.3281 0.8012l-0.9017 0.4519v1.027l0.9017 0.4522c0.08202 0.2876 0.1847 0.5546 0.3281 0.8012l-0.3074 0.9655 0.7173 0.7191 0.9633-0.3082c0.2461 0.1439 0.5125 0.2466 0.7993 0.3289l0.4508 0.9038h1.025l0.4508-0.9038c0.2868-0.0823 0.5532-0.1849 0.7993-0.3289l0.9633 0.3289 0.7173-0.7398-0.3074-0.9448c0.1434-0.2466 0.2461-0.5138 0.3281-0.8014l0.9017-0.4519v-1.027l-0.9017-0.4522c-0.08202-0.2876-0.1847-0.5546-0.3281-0.8012z" fill-rule="evenodd" stroke-width=".2646" />
    <g transform="matrix(.2646 0 0 .2646 85.01 154)" aria-label="対象・引数の検証&amp;置換">
      <path d="m18.6-12.64h-3.141l-2.906 0.04687q-0.1641 0-0.1641-0.1641v-0.7734q0-0.1641 0.1641-0.1641l2.906 0.04687h3.141v-3.094q0-1.957-0.1641-2.742 0.6562 0.03516 1.266 0.1289 0.2695 0.03516 0.2695 0.1875 0 0.09375-0.1523 0.4336-0.1172 0.3281-0.1172 1.969v3.117l2.66-0.04687q0.1758 0 0.1758 0.1641v0.7734q0 0.1641-0.1758 0.1641l-2.66-0.04687v8.848l0.02344 3.457q0 0.9844-0.5977 1.512-0.5273 0.3984-2.578 0.3984-0.3398 0-0.7383-0.01172-0.3047 0-0.3633-0.05859-0.05859-0.05859-0.1172-0.3281-0.08203-0.4102-0.3984-0.8086 1.102 0.09375 2.637 0.09375 0.6094 0 0.8203-0.2344 0.2109-0.2227 0.2109-0.75zm-8.637-1.711q-0.4102 4.969-1.711 7.758 1.629 2.027 2.836 4.055 0.05859 0.08203 0.05859 0.1289 0 0.05859-0.1992 0.2227l-0.4102 0.3867q-0.1055 0.08203-0.1641 0.08203-0.07031 0-0.1523-0.1289-1.031-1.828-2.449-3.738-1.945 3.762-5.379 6.234-0.2227 0.1523-0.293 0.1523-0.09375 0-0.2813-0.2227-0.2461-0.293-0.6445-0.5273 3.797-2.461 5.836-6.598-1.535-1.934-3.703-4.055-0.09375-0.1055-0.09375-0.1641 0-0.05859 0.09375-0.1523l0.3633-0.3398q0.1523-0.1289 0.2109-0.1289 0.04688 0 0.1055 0.05859 1.852 1.816 3.48 3.773 1.184-2.859 1.383-6.797h-4.125l-2.977 0.04687q-0.1641 0-0.1641-0.1641v-0.7266q0-0.1641 0.1641-0.1641l2.977 0.04687h1.711v-1.77q0-1.852-0.1758-2.52 0.75 0.03516 1.254 0.1172 0.2578 0.03516 0.2578 0.1875 0 0.09375-0.1406 0.4336-0.1172 0.3281-0.1172 1.781v1.77h1.535l2.977-0.04687q0.1641 0 0.1641 0.1641v0.7266q0 0.1641-0.1641 0.1641-0.02344 0-0.2578-0.01172-0.7617-0.02344-1.805-0.03516zm3.598 4.441q1.629 1.699 2.906 4.254 0.03516 0.07031 0.03516 0.1172 0 0.05859-0.1641 0.1641l-0.4336 0.2695q-0.2227 0.1406-0.2812 0.1406-0.05859 0-0.1172-0.1289-1.102-2.332-2.789-4.219-0.07031-0.05859-0.07031-0.1172 0-0.07031 0.1875-0.2109l0.3633-0.2461q0.1406-0.1055 0.2109-0.1055 0.07031 0 0.1523 0.08203z" />
      <path d="m25.46-0.1406q6.316-1.137 11.04-4.875-0.3164-0.9375-0.7617-1.629-3.668 2.52-8.848 3.715-0.2227 0.05859-0.2812 0.05859-0.1172 0-0.2695-0.293-0.09375-0.2227-0.4219-0.5508 3.223-0.7383 5.309-1.559 2.262-0.8906 4.008-2.168-0.5508-0.6797-1.254-1.313-2.848 1.535-6.797 2.391-0.2227 0.05859-0.2812 0.05859-0.1172 0-0.2461-0.293-0.1758-0.375-0.4336-0.5977 5.133-0.8438 8.379-2.977h-2.227l-3.586 0.04687q-0.1641 0-0.1641-0.1641l0.04687-1.641v-2.25q-0.75 0.5273-2.203 1.336-0.1992 0.09375-0.2695 0.09375-0.1172 0-0.2578-0.2578-0.1641-0.293-0.457-0.5039 4.266-1.969 6.574-5.156 0.5273-0.7266 0.7734-1.512 0.5508 0.1523 1.055 0.3633 0.2109 0.08203 0.2109 0.2578 0 0.1406-0.2344 0.2695-0.1641 0.08203-0.7734 0.9141l-0.2109 0.2578h4.992q0.3164 0 0.5039-0.07031 0.09375-0.04687 0.1641-0.04687 0.1875 0 0.5508 0.3047 0.4102 0.3516 0.4102 0.4922 0 0.1523-0.2578 0.3047-0.1523 0.08203-0.5039 0.4805-1.09 1.348-1.711 1.945h3.656l3.574-0.04687q0.1641 0 0.1641 0.1641l-0.04687 1.559v1.172l0.04687 1.57q0 0.1641-0.1641 0.1641l-3.574-0.04687h-2.379q0.9141 2.543 2.062 4.289 1.547-1.043 2.379-1.863 0.5977-0.5742 0.8086-1.031 0.6094 0.293 0.9727 0.5508 0.2109 0.1523 0.2109 0.2812 0 0.1758-0.293 0.2695-0.2578 0.07031-0.668 0.4102-1.523 1.266-2.859 2.156 2.109 2.801 6.047 4.605-0.3867 0.2812-0.6211 0.6445-0.1758 0.2812-0.2578 0.2812-0.07031 0-0.2695-0.1055-3.375-1.887-5.344-4.359-1.875-2.379-3.199-6.129h-1.008q-0.5156 0.3516-1.535 0.9844 1.852 1.5 2.707 3.809 0.6211 1.699 0.6211 3.551 0 1.992-0.8672 2.789-0.7969 0.7148-2.59 0.7148h-1.125q-0.2812 0-0.3398-0.04688-0.03516-0.04688-0.09375-0.3047-0.1055-0.457-0.3867-0.8203 1.125 0.09375 2.098 0.09375 1.266 0 1.793-0.6445 0.457-0.5508 0.457-1.676 0-1.125-0.2344-2.262-4.523 3.457-10.21 4.723-0.2227 0.05859-0.293 0.05859-0.1172 0-0.2812-0.293-0.1992-0.3867-0.5273-0.6445zm17.86-13.65h-6.48v2.73h6.48zm-13.59 0v2.73h6.082v-2.73zm2.402-3.41q-1.207 1.395-2.719 2.496h6.328q1.102-1.066 2.133-2.496z" />
      <path d="m60-11.02q0.832 0 1.395 0.6211 0.4805 0.5391 0.4805 1.254 0 0.832-0.6211 1.406-0.5391 0.4922-1.254 0.4922-0.832 0-1.406-0.6328-0.4922-0.5508-0.4922-1.266 0-0.832 0.6328-1.395 0.5391-0.4805 1.266-0.4805z" />
      <path d="m76.2-8.355h5.309l2.648-0.04688q0.1875 0 0.1875 0.1875-0.1055 0.9141-0.1406 1.301-0.5391 5.414-1.512 6.984-0.6797 1.078-2.355 1.078-0.8672 0-1.969-0.09375-0.3047-0.02344-0.3633-0.09375-0.04688-0.05859-0.09375-0.3398-0.07031-0.4688-0.293-0.832 1.57 0.2109 2.426 0.2344 1.242 0.03516 1.605-0.5039 1.02-1.617 1.418-6.937h-7.102q-0.2227 0.8203-0.5039 1.723-0.07031 0.1992-0.2344 0.1992-0.1055 0-0.4102-0.05859-0.5039-0.1055-0.5039-0.2344 0-0.04688 0.04687-0.1641 0.9609-2.812 1.359-5.449 0.1523-1.055 0.1523-1.734 0-0.1875 0.2109-0.1875l2.203 0.04687h4.301v-4.266h-4.828l-2.613 0.04687q-0.1641 0-0.1641-0.1641v-0.75q0-0.1641 0.1641-0.1641l2.613 0.04687h3.223l2.613-0.04687q0.1406 0 0.1406 0.1641l-0.04687 2.016v1.945l0.04687 1.992q0 0.1641-0.1406 0.1641l-2.613-0.04687h-4.008q-0.3164 2.109-0.7734 3.984zm14.05-11.5q0.8438 0.04687 1.406 0.1289 0.2695 0.03516 0.2695 0.1875 0 0.09375-0.1172 0.4102-0.2227 0.5977-0.2227 3.164v13.39l0.04687 4.008q0 0.1641-0.1641 0.1641h-0.8906q-0.1641 0-0.1641-0.1641l0.04687-3.984v-13.32q0-3.141-0.2109-3.984z" />
      <path d="m104.3-13.85q1.43 1.605 3.34 2.672-0.3281 0.1992-0.5508 0.5273-0.1523 0.1992-0.2227 0.1992-0.082 0-0.3047-0.1758-1.723-1.348-2.859-2.953 0.0117 1.336 0.082 2.719 0.0586 1.078 0.0586 1.148 0 0.1641-0.1641 0.1641h-0.8203q-0.1641 0-0.1641-0.1641 0-0.1289 0.0352-0.6797 0.0937-1.664 0.1055-3.117-1.5 2.484-4.559 4.629-0.2227 0.1758-0.3047 0.1758-0.08203 0-0.2461-0.1992-0.2461-0.3164-0.5273-0.457 2.777-1.723 4.219-3.527 0.3516-0.375 0.7266-0.9609h-1.371l-3 0.04687q-0.1641 0-0.1641-0.1641v-0.6445q0-0.1992 0.1641-0.1992l3 0.04687h2.016v-3.211q0-1.125-0.1641-1.805 0.6094 0.03516 1.148 0.1289 0.2344 0.03516 0.2344 0.2109 0 0.08203-0.1172 0.3633-0.1172 0.2344-0.1172 1.125v3.188h1.465l3-0.04687q0.1641 0 0.1641 0.1992v0.6445q0 0.1641-0.1641 0.1641l-3-0.04687zm-1.898 6.867h3.199l3.047-0.04688q0.1641 0 0.1641 0.1641v0.6562q0 0.1641-0.1641 0.1641-0.0234 0-0.2695-0.01172-0.8086-0.02344-1.887-0.03516-0.8789 2.449-1.992 3.762 1.277 0.7266 2.133 1.348 0.0937 0.05859 0.0937 0.1172 0 0.05859-0.1406 0.2227l-0.2461 0.3047q-0.1758 0.2695-0.2695 0.2695-0.0469 0-0.1406-0.07031-1.23-0.9492-2.109-1.465-1.746 1.711-5.273 2.93-0.2109 0.07031-0.2812 0.07031-0.1406 0-0.3281-0.293-0.1875-0.3047-0.5039-0.5039 3.516-0.9727 5.496-2.73-1.734-0.9141-2.637-1.254-0.4336 0.6445-0.5742 0.8438-0.1641 0.2109-0.3047 0.2109-0.08203 0-0.2227-0.04688l-0.3867-0.1406q-0.2344-0.08203-0.2344-0.1758 0-0.05859 0.07031-0.1406 0.5039-0.5391 1.078-1.406 0.5977-0.8906 1.102-1.852h-0.0703l-3.047 0.04688q-0.1641 0-0.1641-0.1641v-0.6562q0-0.1641 0.1641-0.1641l3.047 0.04688h0.5508l0.5039-1.008q0.293-0.6562 0.3867-1.277 0.6094 0.1641 1.031 0.3398 0.2109 0.08203 0.2109 0.2461 0 0.1289-0.1875 0.2812-0.1523 0.1289-0.5508 0.8672-0.082 0.1406-0.293 0.5508zm-0.4805 0.8906q-0.1289 0.2695-1.195 2.016 1.617 0.5859 2.883 1.277 1.137-1.266 1.816-3.293zm9.48-8.695h4.535l2.578-0.04687q0.1641 0 0.1641 0.1641v0.7266q0 0.1641-0.1641 0.1641l-2.121-0.04687q-0.4688 5.719-2.52 9.117 1.559 2.25 5.285 5.062-0.3047 0.2109-0.5742 0.6797-0.1758 0.2461-0.2578 0.2461-0.0703 0-0.2695-0.1523-3.094-2.555-4.781-4.922-2.215 3.188-6.07 5.227-0.2227 0.1172-0.3047 0.1172-0.0937 0-0.293-0.2578-0.2344-0.3398-0.5976-0.5273 4.465-2.133 6.668-5.52-1.793-3.164-2.543-6.914-0.7617 1.535-1.629 2.789-0.1406 0.2109-0.2227 0.2109-0.0586 0-0.2812-0.1875-0.2578-0.2227-0.6094-0.3398 2.531-3.223 3.82-8.426 0.3164-1.125 0.3633-2.203 0.7031 0.1641 1.043 0.3164 0.293 0.1055 0.293 0.2812 0 0.02344-0.2344 0.3867-0.1523 0.1758-0.3867 1.125-0.4102 1.488-0.8906 2.93zm-0.3281 0.9609-0.3164 0.7617q0.8555 4.312 2.473 7.324 1.676-2.988 2.109-8.086zm-11.59-4.91q0.8906 1.078 1.5 2.496 0.0234 0.04687 0.0234 0.08203 0 0.08203-0.2109 0.1992l-0.3047 0.1641q-0.1992 0.1172-0.2695 0.1172-0.0586 0-0.1172-0.1406-0.4805-1.242-1.395-2.414-0.05859-0.09375-0.05859-0.1406 0-0.08203 0.2227-0.1992l0.3164-0.1641q0.1289-0.08203 0.1758-0.08203 0.05859 0 0.1172 0.08203zm5.66 2.965q0.8789-1.055 1.488-2.227 0.2344-0.4688 0.3047-0.8672 0.5976 0.2227 0.9023 0.4102 0.1875 0.1172 0.1875 0.2461 0 0.1055-0.1406 0.2109-0.2227 0.1641-0.3867 0.4102-0.5977 1.02-1.324 1.922-0.1758 0.2227-0.2695 0.2227-0.082 0-0.3047-0.1289-0.2461-0.1641-0.457-0.1992z" />
      <path d="m132.8-15.34q-0.3516 3.234-1.289 6.246-0.8203 2.648-1.863 4.312-1.5 2.402-3.422 2.402-1.383 0-2.355-1.535-0.9141-1.465-0.9141-3.668 0-1.781 0.832-3.539 0.7383-1.594 1.98-2.707 2.789-2.52 6.949-2.52 4.184 0 6.457 2.355 1.945 2.004 1.945 5.18 0 3.164-2.039 5.32-1.934 2.062-5.52 2.918-0.082 0.01172-0.1289 0.01172-0.2226 0-0.3516-0.2578-0.2227-0.3984-0.6445-0.6445 3.914-0.8086 5.777-3 1.582-1.863 1.582-4.582 0-3-2.156-4.805-1.781-1.488-4.289-1.488-0.4102 0-0.5508 0zm-1.277 0.07031q-2.941 0.293-4.945 2.215-1.312 1.254-1.945 2.941-0.4805 1.289-0.4805 2.543 0 2.027 0.8203 3.129 0.5976 0.7852 1.336 0.7852 1.242 0 2.355-1.898 1.078-1.84 1.898-4.688 0.7383-2.59 0.9609-5.027z" />
      <path d="m21.19 15.12q0.8789 2.93 2.777 5.238-0.2812 0.2578-0.5039 0.7148-0.1055 0.2227-0.1641 0.2227-0.07031 0-0.1875-0.2109-1.43-2.426-2.121-4.664 0.03516 4.852 0.1289 10.21 0.01172 1.254 0.04687 2.965 0.02344 0.7969 0.02344 0.8672 0 0.1406-0.1523 0.1406h-0.8789q-0.1641 0-0.1641-0.1406 0-0.01172 0.03516-2.121 0.1406-6.27 0.1758-11.73-1.066 4.816-3.023 8.062-0.1289 0.2227-0.1992 0.2227-0.08203 0-0.1875-0.2227-0.1758-0.3867-0.5273-0.6211 2.531-3.867 3.645-8.93h-0.6914l-2.156 0.04687q-0.1758 0-0.1758-0.1641v-0.7148q0-0.1758 0.1758-0.1758l2.156 0.04687h0.8438v-2.273q0-1.957-0.1758-2.719 0.5977 0.03516 1.23 0.1289 0.2695 0.03516 0.2695 0.1875 0 0.1406-0.1523 0.4336-0.1172 0.293-0.1172 1.945v2.297h0.1641l2.156-0.04687q0.1758 0 0.1758 0.1758v0.7148q0 0.1641-0.1758 0.1641l-2.156-0.04687zm9.012 9.328q-0.02344 0.04687-0.05859 0.1758-0.03516 0.09375-0.05859 0.1406-0.6445 1.898-2.367 3.434-1.629 1.465-3.973 2.355-0.2109 0.08203-0.2812 0.08203-0.1055 0-0.293-0.3047-0.1992-0.3164-0.5742-0.5508 5.227-1.688 6.574-5.566l0.04687-0.1172h-1.031l-3.07 0.04687q-0.1641 0-0.1641-0.1641l0.04687-1.734v-1.605l-0.04687-1.781q0-0.1641 0.1641-0.1641l3.07 0.04687h1.582q0.03516-0.8086 0.03516-2.414h-0.4805l-2.309 0.04687q-0.1992 0-0.1992-0.1406v-0.6797q0-0.1641 0.1992-0.1641l2.309 0.04687h2.426l2.332-0.04687q0.1641 0 0.1641 0.1641v0.6797q0 0.1406-0.1641 0.1406l-2.332-0.04687h-0.8672q0 1.605-0.02344 2.414h2.016l3.047-0.04687q0.1758 0 0.1758 0.1641l-0.04687 1.781v1.605l0.04687 1.734q0 0.1641-0.1758 0.1641l-3.047-0.04687h-1.875q1.992 3.785 7.23 5.566-0.3516 0.2695-0.5508 0.6445-0.1758 0.3047-0.293 0.3047-0.08203 0-0.3047-0.1055-2.73-1.23-4.301-2.648-1.535-1.371-2.578-3.41zm-0.7617-1.219q0.293-1.652 0.3281-3.598h-3.762v3.598zm1.395-3.598q-0.04687 2.309-0.3398 3.598h4.547v-3.598zm0-9.914q2.812 3.914 7.676 6.176-0.3633 0.2344-0.5977 0.6211-0.1758 0.2695-0.2578 0.2695-0.07031 0-0.293-0.1289-2.543-1.441-4.172-2.871-1.605-1.406-2.883-3.246-2.531 3.973-6.199 6.41-0.2109 0.1289-0.2695 0.1289-0.08203 0-0.2812-0.2461-0.2344-0.3398-0.5039-0.4805 3.949-2.355 6.293-6.293 0.4102-0.7266 0.5273-1.219 0.5508 0.1172 1.031 0.2578 0.293 0.1055 0.293 0.293 0 0.1172-0.1523 0.1875z" />
      <path d="m56.61 28.4h2.086l3.27-0.04687q0.1641 0 0.1641 0.1641v0.75q0 0.1641-0.1641 0.1641l-3.27-0.04687h-6.082l-3.27 0.04687q-0.1641 0-0.1641-0.1641v-0.75q0-0.1641 0.1641-0.1641 0.02344 0 0.2461 0.01172 0.7148 0.02344 1.652 0.03516v-8.062q0-2.391-0.1641-3.176 0.7617 0.04687 1.242 0.1523 0.2578 0.03516 0.2578 0.1641 0 0.1172-0.1406 0.457-0.1172 0.3047-0.1172 2.402v8.062h3.188v-16.46h-2.227l-3.07 0.04687q-0.1641 0-0.1641-0.1641v-0.7734q0-0.1641 0.1641-0.1641l3.07 0.04687h5.086l3.094-0.04687q0.1641 0 0.1641 0.1641v0.7734q0 0.1641-0.1641 0.1641l-3.094-0.04687h-1.758v7.008h2.637l1.805-0.04687q0.1641 0 0.1641 0.1641v0.7734q0 0.1641-0.1641 0.1641l-1.805-0.04687h-2.637zm-13.54 0.832v1.266q0 0.1758-0.1641 0.1758h-0.75q-0.1641 0-0.1641-0.1758l0.04687-3.492v-1.418l-0.04687-2.039q0-0.1641 0.1641-0.1641l2.086 0.04687h1.875l2.086-0.04687q0.1641 0 0.1641 0.1641l-0.04687 1.664v1.5l0.04687 3.363q0 0.1641-0.1641 0.1641h-0.7266q-0.1641 0-0.1641-0.1641v-0.8438zm0-0.9141h4.242v-3.996h-4.242zm1.254-8.133h1.699l1.969-0.04687q0.1758 0 0.1758 0.1758v0.7148q0 0.1641-0.1758 0.1641l-1.969-0.04687h-1.699l-1.969 0.04687q-0.1641 0-0.1641-0.1641v-0.7148q0-0.1758 0.1641-0.1758zm0-3.188h1.699l1.969-0.04687q0.1758 0 0.1758 0.1641v0.7266q0 0.1641-0.1758 0.1641l-1.969-0.04687h-1.699l-1.969 0.04687q-0.1641 0-0.1641-0.1641v-0.7266q0-0.1641 0.1641-0.1641zm-0.02344-6.551h1.945l2.109-0.04687q0.1641 0 0.1641 0.1641v0.7266q0 0.1641-0.1641 0.1641l-2.109-0.04687h-1.945l-2.086 0.04687q-0.1758 0-0.1758-0.1641v-0.7266q0-0.1641 0.1758-0.1641zm-0.7031 3.281h3l2.555-0.04687q0.1641 0 0.1641 0.1641v0.75q0 0.1641-0.1641 0.1641l-2.555-0.04687h-3l-2.543 0.04687q-0.1641 0-0.1641-0.1641v-0.75q0-0.1641 0.1641-0.1641z" />
      <path d="m78.4 20.39q-0.2227 1.828-0.832 3.375-0.5508 1.418-1.301 2.238 0.8906 0.9727 1.676 1.277 0.6562 0.2578 1.77 0.2578l-0.375 1.195h-0.3398q-1.312 0-2.168-0.457-0.7148-0.375-1.523-1.289-1.98 1.805-4.875 1.805-2.566 0-4.113-1.594-1.336-1.383-1.336-3.398 0-1.969 1.078-3.293 0.9258-1.125 2.812-1.992-1.348-2.086-1.348-3.82 0-1.688 1.242-2.777 1.066-0.9375 2.578-0.9375 1.77 0 2.789 1.066 0.8789 0.9375 0.8789 2.391 0 1.652-1.137 2.73-1.043 0.9727-3.234 1.711 2.309 3.551 4.828 6.387 1.207-1.723 1.559-5.215zm-8.977-1.055q-1.781 0.9023-2.449 2.016-0.5742 0.9492-0.5742 2.402 0 1.77 1.336 2.895 1.172 0.9961 2.836 0.9961 2.426 0 3.984-1.43-2.824-3.176-5.133-6.879zm0.6914-1.324q2.133-0.7852 2.883-1.688 0.6211-0.7617 0.6211-1.98 0-1.043-0.7031-1.676-0.6328-0.5625-1.57-0.5625-1.113 0-1.828 0.8086-0.6211 0.7031-0.6211 1.711 0 0.8906 0.3047 1.688 0.2695 0.6797 0.9141 1.699z" />
      <path d="m91.45 18.61q0.09375-0.3281 0.2695-0.9492 0.1523-0.5508 0.2344-0.8203h-5.883l-3.246 0.04687q-0.1641 0-0.1641-0.1641v-0.6797q0-0.1641 0.1641-0.1641l3.246 0.04687h6.117l0.3867-1.652h-5.766l-3.387 0.04687q-0.1641 0-0.1641-0.1406l0.04687-1.465v-0.9727l-0.04687-1.441q0-0.1875 0.1641-0.1875l3.387 0.04687h11.74l3.387-0.04687q0.1641 0 0.1641 0.1875l-0.0469 1.441v0.9727l0.0469 1.465q0 0.1406-0.1641 0.1406l-3.387-0.04687h-4.922q-0.2344 1.102-0.4102 1.652h6.141l3.246-0.04686q0.1641 0 0.1641 0.1406v0.7031q0 0.1641-0.1641 0.1641l-3.246-0.04687h-6.375q-0.3398 1.195-0.5273 1.77h4.148l3.117-0.04687q0.1641 0 0.1641 0.1641l-0.04687 2.332v3.527l0.04687 2.309q0 0.1641-0.1641 0.1641l-3.117-0.04687h-5.062l-3.152 0.04687q-0.1641 0-0.1641-0.1641l0.04687-2.309v-3.527l-0.04687-2.332q0-0.1641 0.1641-0.1641zm-2.121 2.496h9.457v-1.629h-9.457zm0 0.8203v1.652h9.457v-1.652zm0 2.473v1.746h9.457v-1.746zm0.7969-10.97h4.828v-2.379h-4.828zm5.836 0h5.039v-2.379h-5.039zm-6.82 0v-2.379h-4.781v2.379zm-5.203 5.73q0.8555 0.04687 1.242 0.1289 0.2695 0.03516 0.2695 0.1875 0 0.07031-0.1523 0.457-0.1172 0.293-0.1172 1.793v6.75h14.38l3.387-0.04687q0.1641 0 0.1641 0.1641v0.7266q0 0.1641-0.1641 0.1641l-3.387-0.04687h-14.38v1.055q0 0.1641-0.1641 0.1641h-0.7969q-0.1641 0-0.1641-0.1641l0.04687-3.27v-5.496q0-1.84-0.1641-2.566z" />
      <path d="m120.4 15.08h2.203l3.176-0.04687q0.1641 0 0.1641 0.1641l-0.0469 2.578v2.73l0.0469 2.332q0 0.1641-0.1641 0.1641h-0.75q-0.1875 0-0.1875-0.1641l0.0469-2.332v-4.535h-3.387v3.293q0 0.3867 0.2344 0.4922 0.2578 0.09375 0.7266 0.09375 0.5859 0 0.8438-0.1641 0.3047-0.1992 0.3281-1.652 0.2578 0.2578 0.5156 0.3633 0.293 0.1289 0.293 0.3164 0 0.03516-0.0117 0.1875-0.1172 1.125-0.5039 1.43-0.4922 0.3867-1.488 0.3867-0.8203 0-1.148-0.1172-0.7031-0.2461-0.7031-1.078v-3.551h-1.852q-0.0586 2.016-0.6211 3.129-0.5742 1.125-1.945 2.074-0.1758 0.1406-0.2461 0.1406-0.082 0-0.2812-0.2344-0.1758-0.2227-0.5273-0.3633 1.594-0.8672 2.18-2.039 0.5039-0.9961 0.5391-2.707h-2.883v4.535l0.0469 2.332q-7e-5 0.1641-0.1641 0.1641h-0.7266q-0.1875 0-0.1875-0.1641l0.0469-2.332v-2.73q0-1.664-0.0469-2.332-0.1172 0.08203-0.3516 0.2812-0.1875 0.1641-0.293 0.2461-0.1992 0.1523-0.293 0.1523-0.1055 0-0.2344-0.2227-0.1523-0.2695-0.457-0.4336 2.871-2.074 4.488-4.992 0.4453-0.8086 0.5977-1.465 0.6445 0.1523 1.078 0.3164 0.1641 0.05859 0.1641 0.2344 0 0.1406-0.1641 0.2695-0.2461 0.1992-0.7031 0.9844-0.0117 0.03516-0.0703 0.1289-0.0469 0.07031-0.0703 0.1055h3.504q0.293 0 0.4805-0.09375 0.1523-0.07031 0.2226-0.07031 0.1641 0 0.5742 0.3633 0.3867 0.3516 0.3867 0.4805 0 0.1406-0.293 0.3047-0.1992 0.1172-0.457 0.5508-1.043 1.664-1.629 2.496zm-1.137 0q0.9844-1.348 1.945-3.164h-4.148q-1.324 1.887-2.684 3.117 0.8086 0.04687 2.871 0.04687zm0.75 8.707h3.938l3.41-0.04687q0.1641 0 0.1641 0.1641v0.6797q0 0.1641-0.1641 0.1641l-3.41-0.04687h-3.527q1.078 1.957 2.941 3.117 1.711 1.066 4.312 1.605-0.2695 0.3047-0.4336 0.6797-0.1406 0.3281-0.3164 0.3281-0.082 0-0.2578-0.04687-2.719-0.6914-4.664-2.309-1.523-1.277-2.367-2.965-1.594 3.973-7.418 5.367-0.2344 0.04687-0.293 0.04687-0.1406 0-0.2812-0.3047-0.1758-0.3633-0.5391-0.6445 6.117-1.008 7.617-4.875h-3.105l-3.398 0.04687q-0.1758 0-0.1758-0.1641v-0.6797q0-0.1641 0.1758-0.1641l3.398 0.04687h3.387q0.1758-0.832 0.1758-1.512 0-0.2695-0.0586-0.7734 0.8555 0.09375 1.184 0.1523 0.2109 0.03516 0.2109 0.2344 0 0.08203-0.1641 0.3633-0.1406 0.2695-0.2109 0.8672-0.0352 0.2344-0.1289 0.668zm-9.938-3.328q1.219-0.5273 2.203-1.031-0.0703 0.6445-0.0703 0.7617 0 0.2812-0.0352 0.3516-0.0469 0.05859-0.2461 0.1523-0.6562 0.3164-1.852 0.8438v3.434l0.0469 3.211q0 0.8555-0.1641 1.23-0.1289 0.3047-0.457 0.5508-0.5859 0.3867-1.945 0.3867-0.1055 0-0.3633 0-0.3164 0-0.3867-0.05859-0.0703-0.05859-0.1406-0.3281-0.082-0.3633-0.375-0.8203 0.7266 0.1055 1.77 0.1055 0.5742 0 0.7617-0.3047 0.1758-0.2578 0.1758-0.9258v-6l-1.301 0.5273q-0.7031 0.2695-0.9024 0.4805-0.1523 0.1406-0.2695 0.1406-0.1523 0-0.2344-0.1641-0.1875-0.3867-0.4102-1.078 0.832-0.1289 2.109-0.5977 0.082-0.03516 0.4805-0.1875 0.3047-0.1172 0.5273-0.1992v-5.719h-0.7734l-2.086 0.05859q-0.1641 0-0.1641-0.1758v-0.7617q0-0.1758 0.1641-0.1758l2.086 0.04687h0.7734v-2.18q0-1.945-0.1641-2.754 0.75 0.03516 1.242 0.1406 0.293 0.03516 0.293 0.1641 0 0.1172-0.1406 0.457-0.1524 0.3633-0.1524 1.969v2.203h0.0703l2.062-0.04687q0.1758 0 0.1758 0.1758v0.7617q0 0.1758-0.1758 0.1758l-2.062-0.05859h-0.0703z" />
    </g>
    <path d="m189.2 153.6c-0.8348 0-1.491-0.6985-1.491-1.541 0-0.8628 0.6758-1.541 1.491-1.541 0.8348 0 1.491 0.6985 1.491 1.541 0 0.8422-0.6559 1.541-1.491 1.541zm3.041-3.308 0.318-0.9655-0.7154-0.7398-0.9342 0.3289c-0.2384-0.1439-0.5167-0.2466-0.775-0.3289l-0.4374-0.9038h-0.9938l-0.4374 0.9038c-0.2781 0.0823-0.5366 0.1849-0.775 0.3289l-0.9342-0.3289-0.6956 0.7191 0.2982 0.9657c-0.1392 0.2463-0.2384 0.5339-0.318 0.8012l-0.8744 0.4519v1.027l0.8744 0.4522c0.0796 0.2876 0.1789 0.5546 0.318 0.8012l-0.2982 0.9655 0.6956 0.7191 0.9342-0.3082c0.2384 0.1439 0.4969 0.2466 0.775 0.3289l0.4374 0.9038h0.9938l0.4374-0.9038c0.2781-0.0823 0.5366-0.1849 0.775-0.3289l0.9342 0.3289 0.6956-0.7398-0.2982-0.9448c0.1392-0.2466 0.2384-0.5138 0.318-0.8014l0.8744-0.4519v-1.027l-0.8744-0.4522c-0.0796-0.2876-0.1789-0.5546-0.318-0.8012z" fill-rule="evenodd" stroke-width=".2646" />
    <g transform="matrix(.2646 0 0 .2646 195.8 154)" aria-label="設定項目の提供">
      <path d="m12.19-8.449q-0.6211 0.01172-1.113 0.03516-0.3281 0.01172-0.3516 0.01172-0.1641 0-0.1641-0.1875v-0.7266q0-0.1641 0.1641-0.1641l2.906 0.04688h5.742q0.3516 0 0.5039-0.07031 0.1406-0.07031 0.2578-0.07031 0.1875 0 0.5039 0.3867 0.3398 0.3633 0.3398 0.5508 0 0.1172-0.1875 0.2578-0.2227 0.1641-0.5039 0.7734-1.195 2.566-3.246 4.723 2.133 1.863 5.953 3.293-0.4453 0.3633-0.5977 0.6445-0.1875 0.3281-0.293 0.3281-0.05859 0-0.2578-0.09375-3.574-1.629-5.578-3.422-2.461 2.309-5.801 3.621-0.2461 0.09375-0.3047 0.09375-0.1055 0-0.2695-0.293-0.2344-0.3867-0.5977-0.5742 3.539-1.184 6.234-3.574-2.109-2.238-3.34-5.59zm1.031 0q1.137 2.918 3.047 4.875 2.121-2.156 3.199-4.875zm-9.527 8.449v1.441q0 0.1641-0.1641 0.1641h-0.7266q-0.1641 0-0.1641-0.1641l0.04688-3.504v-1.395l-0.04688-2.062q0-0.1641 0.1641-0.1641l2.016 0.04688h1.734l2.039-0.04688q0.1641 0 0.1641 0.1641l-0.04688 1.687v1.5l0.04688 3.34q0 0.1641-0.1641 0.1641h-0.7266q-0.1641 0-0.1641-0.1641v-1.008zm0-0.9141h4.008v-3.809h-4.008zm6.176-10.22q1.523-0.9727 2.18-2.18 0.7852-1.43 0.7852-3.727l-0.04687-1.559q0-0.1641 0.1641-0.1641l1.91 0.04687h1.723l1.945-0.04687q0.1641 0 0.1641 0.1641l-0.04687 2.039v2.52q0 0.9492 0.2227 1.137 0.2578 0.2109 1.219 0.2109 1.043 0 1.348-0.5039 0.3164-0.4922 0.3164-1.898 0-0.09375-0.01172-0.2812 0.2695 0.2578 0.6328 0.3984 0.3398 0.1523 0.3398 0.3867 0 0.03516-0.01172 0.1406-0.05859 1.617-0.7148 2.238-0.5391 0.5039-2.062 0.5039-1.348 0-1.711-0.2344-0.6211-0.3867-0.6211-1.734v-4.031h-3.715q0 2.918-0.75 4.57-0.6211 1.406-1.992 2.414-0.2695 0.1875-0.3281 0.1875-0.08203 0-0.293-0.2109-0.2695-0.2695-0.6445-0.3867zm-4.969 2.227h1.605l1.922-0.04688q0.1641 0 0.1641 0.1641v0.7266q0 0.1641-0.1641 0.1641l-1.922-0.04688h-1.605l-1.922 0.04688q-0.1641 0-0.1641-0.1641v-0.7266q0-0.1641 0.1641-0.1641zm0-3.211h1.605l1.922-0.04687q0.1641 0 0.1641 0.1641v0.7148q0 0.1758-0.1641 0.1758l-1.922-0.04688h-1.605l-1.922 0.04687q-0.1641 0-0.1641-0.1758v-0.7148q0-0.1641 0.1641-0.1641zm-0.02344-6.457h1.84l2.063-0.04687q0.1523 0 0.1523 0.1641v0.7266q0 0.1641-0.1523 0.1641l-2.063-0.04687h-1.84l-2.062 0.04687q-0.1758 0-0.1758-0.1641v-0.7266q0-0.1641 0.1758-0.1641zm-0.6797 3.211h2.836l2.496-0.04687q0.1641 0 0.1641 0.1641v0.75q0 0.1641-0.1641 0.1641l-2.496-0.04688h-2.836l-2.496 0.04687q-0.1641 0-0.1641-0.1641v-0.75q0-0.1641 0.1641-0.1641z" />
      <path d="m36.6-0.7969q2.098 0.3867 5.684 0.3867 1.945 0 3.75-0.09375-0.2227 0.3633-0.293 0.7617-0.05859 0.3047-0.1289 0.3633-0.08203 0.05859-0.3516 0.07031-0.7148 0.02344-2.062 0.02344-7.207-0.01172-9.832-1.383-1.184-0.6211-1.969-1.711-0.4453-0.6211-0.9609-1.723-1.066 2.918-3.703 5.109-0.2109 0.1875-0.293 0.1875-0.08203 0-0.2812-0.2344-0.2812-0.3164-0.6211-0.457 4.16-2.988 4.746-8.59 0.04687-0.5977 0.04687-0.832t-0.01172-0.4688q0.4453 0.07031 1.066 0.2227 0.3398 0.08203 0.3398 0.2344 0 0.1172-0.1406 0.3633-0.1641 0.2578-0.2227 0.5508-0.2227 1.5-0.5156 2.613 0.8555 2.074 1.852 2.977 0.9961 0.9023 2.801 1.395v-10.61h-2.684l-3.316 0.04687q-0.1641 0-0.1641-0.1641v-0.75q0-0.1641 0.1641-0.1641l3.316 0.04687h6.645l3.305-0.04687q0.1758 0 0.1758 0.1641v0.75q0 0.1641-0.1758 0.1641l-3.305-0.04687h-2.859v4.336h3.762l2.238-0.04688q0.1641 0 0.1641 0.1641v0.75q0 0.1641-0.1641 0.1641l-2.238-0.04688h-3.762zm-1.324-16.17v-0.3867q0-1.816-0.1641-2.496 0.8672 0.04687 1.242 0.1289 0.2695 0.03516 0.2695 0.1641 0 0.09375-0.1406 0.4336-0.1055 0.2344-0.1055 1.77v0.3867h5.719l3.387-0.04687q0.1641 0 0.1641 0.1406l-0.04687 1.055v0.8672l0.04687 2.426q0 0.1641-0.1641 0.1641h-0.8203q-0.1641 0-0.1641-0.1641v-3.457h-16.78v3.457q0 0.1641-0.1641 0.1641h-0.8203q-0.1641 0-0.1641-0.1641l0.04687-2.426v-0.7148l-0.04687-1.207q0-0.1406 0.1641-0.1406l3.363 0.04687z" />
      <path d="m62.75-14.93h2.695l3.023-0.04687q0.1641 0 0.1641 0.1641l-0.04687 2.789v5.859l0.04687 2.789q0 0.1875-0.1641 0.1875l-3.023-0.04688h-4.371l-3.023 0.04688q-0.1641 0-0.1641-0.1875l0.04687-2.789v-5.859l-0.04687-2.789q0-0.1641 0.1641-0.1641l3.023 0.04687h0.5273q0.668-1.301 1.055-2.426h-2.473l-3.305 0.04687q-0.1641 0-0.1641-0.1641v-0.75q0-0.1641 0.1641-0.1641l3.305 0.04687h6.656l3.305-0.04687q0.1641 0 0.1641 0.1641v0.75q0 0.1641-0.1641 0.1641l-3.305-0.04687h-3.047q-0.3516 1.02-1.043 2.426zm-3.738 3.457h8.496v-2.52h-8.496zm0 0.9375v2.613h8.496v-2.613zm0 3.504v2.812h8.496v-2.812zm-6.609 1.852v-11.1h-0.5977l-2.168 0.05859q-0.1641 0-0.1641-0.1758v-0.7383q0-0.1758 0.1641-0.1758l2.168 0.04687h2.086l2.156-0.04687q0.1641 0 0.1641 0.1758v0.7383q0 0.1758-0.1641 0.1758l-2.156-0.05859h-0.3867v10.69q1.664-0.6562 2.93-1.395-0.04687 0.4805-0.04687 0.75 0.01172 0.2109 0.01172 0.2227 0 0.2109-0.293 0.375-1.828 0.9141-5.168 2.109-0.7383 0.2344-0.9141 0.4102-0.1172 0.1172-0.2344 0.1172-0.1172 0-0.2227-0.1875-0.1406-0.2812-0.3984-1.055 0.7148-0.1289 1.91-0.5156 0.05859-0.01172 0.7031-0.2109 0.3633-0.1172 0.6211-0.2109zm7.758 2.707q0.5625 0.3164 0.8672 0.5508 0.1875 0.1289 0.1875 0.293 0 0.09375-0.2109 0.1641-0.3047 0.1172-0.5625 0.3398-1.816 1.465-5.062 2.52-0.2461 0.08203-0.3047 0.08203-0.1055 0-0.2695-0.293-0.1875-0.3633-0.5508-0.6328 3.422-0.8555 5.355-2.426 0.293-0.2227 0.5508-0.5977zm10.95 2.883q-0.2344 0.1641-0.5508 0.6445-0.1523 0.2344-0.2578 0.2344-0.04687 0-0.3164-0.09375-2.953-1.23-5.074-2.895-0.07031-0.05859-0.07031-0.1055 0-0.07031 0.2461-0.2344l0.3867-0.2695q0.1289-0.09375 0.2109-0.09375 0.05859 0 0.1172 0.04688 2.027 1.676 5.309 2.766z" />
      <path d="m77.92-0.5742v1.652q0 0.1758-0.1875 0.1758h-0.8438q-0.1641 0-0.1641-0.1758l0.04687-8.402v-4.746l-0.04687-6.094q0-0.1758 0.1641-0.1758l3.387 0.04687h7.371l3.387-0.04687q0.1641 0 0.1641 0.1758l-0.04687 5.496v5.297l0.04687 8.379q0 0.1641-0.1641 0.1641h-0.8672q-0.1641 0-0.1641-0.1641v-1.582zm0-12.36h12.08v-4.324h-12.08zm0 1.008v4.488h12.08v-4.488zm0 5.496v4.828h12.08v-4.828z" />
      <path d="m108.8-15.34q-0.3516 3.234-1.289 6.246-0.8203 2.648-1.863 4.312-1.5 2.402-3.422 2.402-1.383 0-2.355-1.535-0.9141-1.465-0.9141-3.668 0-1.781 0.832-3.539 0.7383-1.594 1.98-2.707 2.789-2.52 6.949-2.52 4.184 0 6.457 2.355 1.945 2.004 1.945 5.18 0 3.164-2.039 5.32-1.934 2.062-5.52 2.918-0.082 0.01172-0.1289 0.01172-0.2226 0-0.3516-0.2578-0.2227-0.3984-0.6445-0.6445 3.914-0.8086 5.777-3 1.582-1.863 1.582-4.582 0-3-2.156-4.805-1.781-1.488-4.289-1.488-0.4102 0-0.5508 0zm-1.277 0.07031q-2.941 0.293-4.945 2.215-1.312 1.254-1.945 2.941-0.4805 1.289-0.4805 2.543 0 2.027 0.8203 3.129 0.5976 0.7852 1.336 0.7852 1.242 0 2.355-1.898 1.078-1.84 1.898-4.688 0.7383-2.59 0.9609-5.027z" />
      <path d="m135.9-3.961v3.48q1.676 0.4336 4.535 0.5039 0.3633 0.01172 0.7383 0.01172 0.9844 0 1.969-0.05859-0.1992 0.2812-0.3047 0.6914-0.0586 0.3047-0.1406 0.3633-0.0586 0.04688-0.3164 0.04688h-1.875q-4.148-0.1172-6.293-1.078-2.027-0.9141-3.281-2.953-1.043 2.461-3.211 4.219-0.1992 0.1641-0.293 0.1641-0.1055 0-0.3164-0.2578-0.2695-0.3164-0.5742-0.4336 2.016-1.312 3.094-3.293 0.7148-1.324 1.113-3.176 0.1172-0.5859 0.1172-1.277 0.5625 0.1289 1.008 0.293 0.3164 0.1172 0.3164 0.2812 0 0.09375-0.1758 0.3164-0.1289 0.1641-0.2344 0.5273-0.1641 0.668-0.4805 1.676 1.406 2.309 3.551 3.094v-7.312h-2.566l-3.34 0.04688q-0.1641 0-0.1641-0.1641v-0.7266q0-0.1875 0.1641-0.1875l3.34 0.04688h6.785l3.34-0.04688q0.1641 0 0.1641 0.1875v0.7266q0 0.1641-0.1641 0.1641l-3.34-0.04688h-3.164v3.211h2.637l2.309-0.04688q0.1641 0 0.1641 0.1641v0.7266q0 0.1641-0.1641 0.1641l-2.309-0.04688zm-10.3-3.551v3.48l0.0234 3.246q0 0.832-0.1641 1.207-0.1172 0.3164-0.4336 0.5391-0.5391 0.3867-2.355 0.3867-0.3047 0-0.375-0.05859-0.0586-0.05859-0.1289-0.3281-0.0937-0.375-0.3867-0.7969 0.6914 0.1055 1.758 0.1055 0.5859 0 0.7969-0.3164 0.1875-0.2695 0.1875-0.9375v-6.047q-0.3164 0.1289-1.582 0.6211-0.668 0.2578-0.8906 0.4805-0.1406 0.1406-0.2695 0.1406-0.1406 0-0.2344-0.1875-0.2227-0.4688-0.4336-1.078 0.9609-0.2109 2.086-0.5977 0.5977-0.1992 1.324-0.4805v-5.648h-0.9141l-2.227 0.05859q-0.1758 0-0.1758-0.1758v-0.7617q0-0.1758 0.1758-0.1758l2.227 0.04687h0.9141v-2.18q0-1.945-0.1758-2.754 0.7148 0.03516 1.254 0.1406 0.2695 0.03516 0.2695 0.1875 0 0.09375-0.1524 0.4336-0.1172 0.3281-0.1172 1.969v2.203h0.1875l2.215-0.04687q0.1641 0 0.1641 0.1758v0.7617q0 0.1758-0.1641 0.1758l-2.215-0.05859h-0.1875v5.215q1.441-0.6445 2.684-1.348-0.0234 0.2695-0.0234 0.7266 0 0.3047-0.0703 0.3867-0.0469 0.07031-0.3164 0.2109-1.043 0.5391-2.273 1.078zm7.805-11.26h3.961l2.895-0.04687q0.1758 0 0.1758 0.1641l-0.0469 2.215v2.93l0.0469 2.215q0 0.1641-0.1758 0.1641l-2.895-0.04687h-3.961l-2.883 0.04687q-0.1641 0-0.1641-0.1641l0.0469-2.215v-2.93l-0.0469-2.215q0-0.1641 0.1641-0.1641zm-1.969 3.293h7.898v-2.355h-7.898zm0 0.8906v2.473h7.898v-2.473z" />
      <path d="m149.3-14.06v11.73l0.0469 3.82q0 0.1641-0.1641 0.1641h-0.8672q-0.1641 0-0.1641-0.1641l0.0469-3.82v-6.457q0-1.699 0.0703-3.422-1.043 1.688-2.449 3.387-0.1641 0.1992-0.2578 0.1992-0.1055 0-0.2461-0.2227-0.1992-0.3398-0.5039-0.5156 3.504-4.02 5.086-8.824 0.3164-0.9375 0.3633-1.617 0.6211 0.1875 1.195 0.457 0.2226 0.1172 0.2226 0.2461 0 0.1758-0.1758 0.3047-0.2461 0.2227-0.5039 0.8672-0.8555 2.203-1.699 3.867zm5.613 7.078v-5.859l-3.223 0.04687q-0.1641 0-0.1641-0.1641v-0.7734q0-0.1641 0.1641-0.1641l3.223 0.04687v-2.062q0-2.18-0.1758-3.187 0.5391 0.02344 1.254 0.1172 0.2461 0.03516 0.2461 0.1875 0 0.03516-0.1055 0.4102-0.1406 0.5273-0.1406 2.426v2.109h4.98v-2.086q0-2.191-0.1758-3.199 0.5625 0.03516 1.266 0.1289 0.2227 0.03516 0.2227 0.1875 0 0.02344-0.0937 0.4102-0.1172 0.4336-0.1172 2.426v2.133h0.2109l3.363-0.04687q0.1641 0 0.1641 0.1641v0.7734q0 0.1641-0.1641 0.1641l-3.363-0.04687h-0.2109v5.859h1.336l3.41-0.04688q0.1758 0 0.1758 0.1641v0.7734q0 0.1641-0.1758 0.1641l-3.41-0.04688h-9.223l-3.398 0.04688q-0.1992 0-0.1992-0.1641v-0.7734q0-0.1641 0.1992-0.1641l3.398 0.04688zm1.078-5.859v5.859h4.98v-5.859zm-5.496 13.35q2.684-1.641 4.277-3.82 0.5508-0.75 0.7852-1.441 0.5859 0.3164 0.9844 0.6094 0.2227 0.1758 0.2227 0.3047 0 0.1523-0.3164 0.3164-0.1523 0.08203-0.7148 0.8086-1.699 2.168-4.09 3.844-0.1758 0.1289-0.2344 0.1289-0.082 0-0.293-0.2461-0.2461-0.3164-0.6211-0.5039zm16.37-0.04688q-0.3281 0.2109-0.5742 0.5742-0.1758 0.2461-0.2695 0.2461-0.0703 0-0.2812-0.1523-2.918-1.98-5.039-5.016-0.0469-0.07031-0.0469-0.09375 0-0.04688 0.2812-0.2344l0.3398-0.2461q0.1992-0.1172 0.2226-0.1172 0.0469 0 0.1055 0.09375 1.934 2.859 5.262 4.945z" />
    </g>
    <path d="m142.9 151.3h29.71v1.058h-29.71zm0.5292 2.117-3.175-1.588 3.175-1.588zm28.65-3.175 3.175 1.588-3.175 1.588z" stroke-width=".2646" />
    <g transform="matrix(.2646 0 0 .2646 150.8 149.2)" aria-label="通信">
      <path d="m15.97-14.36h1.746l3.246-0.04687q0.1641 0 0.1641 0.1641l-0.04687 3.047v3.891l0.02344 3.574q0 1.031-0.5039 1.418-0.5742 0.4102-2.309 0.4102-0.3047 0-0.3633-0.05859-0.07031-0.04688-0.1406-0.3047-0.1055-0.4453-0.3516-0.7383 0.7383 0.07031 1.723 0.07031 0.9141 0 0.9141-0.9375v-2.52h-4.945v1.301l0.04687 2.895q0 0.1758-0.1641 0.1758h-0.7734q-0.1641 0-0.1641-0.1758l0.04687-2.895v-1.301h-4.512v1.512l0.04688 2.93q0 0.1641-0.1641 0.1641h-0.7734q-0.1406 0-0.1406-0.1641l0.04688-2.883v-6.48l-0.04688-2.93q0-0.1641 0.1406-0.1641l3.27 0.04687h2.613q-1.195-1.02-2.977-2.039-0.09375-0.05859-0.09375-0.1172 0-0.07031 0.1875-0.2461l0.2695-0.2344q0.1406-0.1406 0.2109-0.1406 0.04687 0 0.1172 0.04687 1.395 0.8555 2.695 1.91 1.98-1.266 3.691-2.824h-7.148l-3.141 0.04687q-0.1758 0-0.1758-0.1641v-0.7031q0-0.1875 0.1758-0.1875l3.141 0.04687h7.078q0.375 0 0.5508-0.07031 0.1992-0.09375 0.293-0.09375 0.1641 0 0.5742 0.4102 0.3867 0.4102 0.3867 0.6211 0 0.1875-0.293 0.293-0.2578 0.09375-0.7383 0.5039-1.945 1.594-3.703 2.707 0.07031 0.09375 0.2695 0.2344zm4.102 3.527v-2.637h-4.945v2.637zm0 0.8906h-4.945v2.66h4.945zm-10.46 2.66h4.512v-2.66h-4.512zm0-3.551h4.512v-2.637h-4.512zm13.63 10.25q-0.2578 0.2812-0.3867 0.8906-0.05859 0.293-0.1289 0.3398-0.05859 0.04688-0.3281 0.05859-4.441 0.3398-8.789 0.3398-4.289 0-5.977-0.8438-1.523-0.7266-2.227-2.414-1.172 1.266-2.449 2.426-0.3633 0.3047-0.4805 0.5273-0.09375 0.1875-0.2344 0.1875-0.1289 0-0.2695-0.1641-0.293-0.3281-0.6445-0.9844 0.8438-0.4219 1.488-0.9375 1.055-0.8789 2.086-2.039v-6.176h-1.828l-1.559 0.04688q-0.1641 0-0.1641-0.1641v-0.8203q0-0.1406 0.1641-0.1406l1.559 0.04687h1.16l1.605-0.04687q0.1641 0 0.1641 0.1406l-0.04688 2.285v4.852q0.3867 1.008 0.8906 1.559 0.4688 0.5039 1.242 0.8906 1.43 0.668 4.898 0.668 5.027 0 10.25-0.5273zm-20.95-17.61q-0.05859-0.07031-0.05859-0.1055 0-0.07031 0.2227-0.2109l0.3164-0.2109q0.1641-0.1055 0.2109-0.1055 0.07031 0 0.1758 0.09375 1.301 1.242 2.637 3.27 0.03516 0.07031 0.03516 0.1055 0 0.08203-0.2227 0.2578l-0.3164 0.2344q-0.2227 0.1523-0.3164 0.1523-0.07031 0-0.1172-0.1055-1.207-1.98-2.566-3.375z" />
      <path d="m29.14-14.47v12.09l0.04687 3.82q0 0.1641-0.1758 0.1641h-0.8555q-0.1406 0-0.1406-0.1641l0.04687-3.82v-6.387q0-1.242 0.04687-3.691-1.031 1.887-2.402 3.598-0.1641 0.2109-0.2461 0.2109-0.07031 0-0.2109-0.2109-0.2461-0.3516-0.5273-0.5273 3.117-3.691 4.793-8.906 0.2695-0.8672 0.3164-1.652 0.6094 0.1289 1.125 0.3398 0.2461 0.1055 0.2461 0.2344 0 0.1523-0.1758 0.3164-0.1641 0.1758-0.4336 0.8906-0.6328 1.898-1.453 3.691zm4.922 14.68v1.172q0 0.1758-0.1758 0.1758h-0.7617q-0.1641 0-0.1641-0.1758l0.04688-2.883v-1.793l-0.04687-1.945q0-0.1641 0.1641-0.1641l3.094 0.04688h4.77l3.094-0.04688q0.1523 0 0.1523 0.1641l-0.04687 1.711v1.957l0.04686 2.883q0 0.1523-0.1406 0.1523h-0.7969q-0.1641 0-0.1641-0.1523v-1.102zm0-0.9375h9.07v-3.668h-9.07zm2.461-7.816h4.16l2.895-0.04688q0.1758 0 0.1758 0.1641v0.7031q0 0.1641-0.1758 0.1641l-2.895-0.04688h-4.16l-2.93 0.04688q-0.1641 0-0.1641-0.1641v-0.7031q0-0.1641 0.1641-0.1641zm0-3.246h4.16l2.895-0.04687q0.1758 0 0.1758 0.1641v0.7031q0 0.1641-0.1758 0.1641l-2.895-0.04687h-4.16l-2.93 0.04687q-0.1641 0-0.1641-0.1641v-0.7031q0-0.1641 0.1641-0.1641zm0.07031-6.48h4.254l2.93-0.04687q0.1875 0 0.1875 0.1641v0.7266q0 0.1406-0.1875 0.1406l-2.93-0.04687h-4.254l-2.918 0.04687q-0.1758 0-0.1758-0.1406v-0.7266q0-0.1641 0.1758-0.1641zm-1.934 4.207-3.387 0.04687q-0.1758 0-0.1758-0.1641v-0.75q0-0.1641 0.1758-0.1641l3.387 0.04687h8.414l3.387-0.04687q0.1758 0 0.1758 0.1641v0.75q0 0.1641-0.1758 0.1641l-3.387-0.04687z" />
    </g>
    <g fill="#f00">
      <path d="m32.71 145.3 30.77 6.767-0.3408 1.55-30.77-6.767zm30.34 5.046 4.14 3.349-5.163 1.303z" stroke-width=".2646" />
      <path d="m66.89 159.8-23.64 7.182 0.4615 1.519 23.64-7.182zm-23.34 5.432-3.865 3.663 5.249 0.8939z" stroke-width=".2646" />
      <g transform="matrix(.2646 0 0 .2646 21.53 158.8)" aria-label="②上書き呼び出し">
        <g fill="#f00">
          <path d="m9.438-17q0.4531-2.781 2.406-4.219 1.688-1.25 4.156-1.25 3.125 0 4.891 1.578 1.578 1.422 1.578 3.734 0 1.891-1.094 3.406-0.9062 1.234-3.297 3.25-2.547 2.188-3.531 3.188-1.109 1.125-1.719 2.188h9.703v2.688h-13.28v-2.406q1.891-3.516 6.219-7.156 2.141-1.984 2.844-3.125 0.5781-0.9531 0.5781-2.031 0-1.375-0.8594-2.109-0.75-0.6406-2-0.6406-2.938 0-3.328 3.578zm6.562-10.42q4.141 0 7.703 2.094 3.453 2.016 5.469 5.469 2.094 3.562 2.094 7.703t-2.094 7.703q-2.016 3.453-5.469 5.469-3.562 2.094-7.703 2.094t-7.703-2.094q-3.453-2.016-5.469-5.469-2.094-3.562-2.094-7.703t2.094-7.703q2.016-3.453 5.469-5.469 3.562-2.094 7.703-2.094zm0 1.062q-3.844 0-7.156 1.953-3.203 1.891-5.094 5.094-1.953 3.312-1.953 7.156t1.953 7.156q1.891 3.203 5.094 5.094 3.312 1.953 7.156 1.953t7.156-1.953q3.203-1.891 5.094-5.094 1.953-3.312 1.953-7.156t-1.953-7.156q-1.891-3.203-5.094-5.094-3.312-1.953-7.156-1.953z" />
          <path d="m38.52 0.7344-4.062 0.0625q-0.2656 0-0.3125-0.0625-0.04687-0.0625-0.04687-0.2812v-2.922q0-0.25 0.0625-0.2969t0.2969-0.04688l4.062 0.0625h6.75v-18.05q0-3.703-0.2656-5.344 2.375 0.0625 3.75 0.2188 0.5781 0.0625 0.5781 0.4219 0 0.1406-0.2344 0.7344-0.2188 0.6094-0.2188 3.062v5.062h6.266l3.938-0.0625q0.25 0 0.3125 0.0625 0.04687 0.0625 0.04687 0.2812v2.922q0 0.25-0.07813 0.2969-0.04687 0.04687-0.2812 0.04687l-3.938-0.0625h-6.266v10.41h8.734l4.062-0.0625q0.25 0 0.2969 0.0625 0.04687 0.0625 0.04687 0.2812v2.922q0 0.2344-0.0625 0.2812-0.04687 0.0625-0.2812 0.0625l-4.062-0.0625z" />
          <path d="m69.94-8.641-3.969 0.0625q-0.3125 0-0.3125-0.3438v-1.766q0-0.3125 0.3125-0.3125l3.969 0.0625h8.297v-1.281h-4.766l-4.422 0.0625q-0.3125 0-0.3125-0.3438v-1.391q0-0.3438 0.3125-0.3438l4.422 0.0625h4.766v-1.281h-4.453l-4.312 0.0625q-0.2812 0-0.3438-0.0625-0.04687-0.0625-0.04687-0.2812v-1.516q0-0.25 0.07813-0.2969 0.0625-0.04687 0.3125-0.04687l4.312 0.0625h4.453v-1.391h-7.547l-4.328 0.0625q-0.25 0-0.2969-0.0625-0.04687-0.0625-0.04687-0.2812v-1.703q0-0.25 0.0625-0.2969 0.0625-0.04687 0.2812-0.04687l4.328 0.0625h7.547v-1.344h-4.297l-4.438 0.0625q-0.25 0-0.3125-0.0625-0.04687-0.0625-0.04687-0.2812v-1.641q0-0.2656 0.0625-0.3281 0.0625-0.04687 0.2969-0.04687l4.438 0.0625h4.297q-0.04687-1.344-0.2188-2.203 1.828 0.04687 3.344 0.2188 0.4531 0.0625 0.4531 0.3594 0 0.1406-0.1562 0.5625-0.1563 0.4844-0.1563 1.062h3.703l5.297-0.0625q0.25 0 0.2969 0.07813 0.04687 0.0625 0.04687 0.2969l-0.0625 2.781v0.3281l2.875-0.0625q0.2812 0 0.3281 0.07813 0.0625 0.04687 0.0625 0.2969v1.953q0 0.25-0.07813 0.2969-0.0625 0.04687-0.3125 0.04687l-2.875-0.0625v0.2031l0.0625 2.859q0 0.25-0.0625 0.2969-0.0625 0.04687-0.2812 0.04687l-5.297-0.0625h-3.703v1.281h5.109l4.391-0.0625q0.3125 0 0.3125 0.3438v1.391q0 0.3438-0.3125 0.3438l-4.391-0.0625h-5.109v1.281h8.547l3.969-0.0625q0.3438 0 0.3438 0.3125v1.766q0 0.2344-0.0625 0.2969-0.04687 0.04688-0.2812 0.04688l-3.969-0.0625zm17.7-8.891v-1.391h-6.141v1.391zm0-5h-6.141v1.344h6.141zm-14.91 25h-2.562q-0.2656 0-0.3125-0.0625t-0.04688-0.2969l0.0625-4.469v-2.062l-0.0625-2.688q0-0.2656 0.0625-0.3281 0.0625-0.04688 0.2812-0.04688l4.453 0.0625h10.83l4.438-0.0625q0.2656 0 0.3125 0.07812 0.04687 0.0625 0.04687 0.2969l-0.0625 2.312v2.359l0.0625 4.453q0 0.3281-0.3594 0.3281h-2.562q-0.3438 0-0.3438-0.3281v-0.7344h-13.89v0.8281q0 0.25-0.0625 0.3125-0.0625 0.04688-0.2812 0.04688zm0.3438-3.234h13.89v-1.375h-13.89zm0-4.578v1.344h13.89v-1.344z" />
          <path d="m109.5-21.25q-0.4219-1.219-0.7656-2.078-0.5312-1.266-1.125-2.047 2.016-0.3438 3.875-0.3438 0.7031 0 0.7031 0.5781l-0.0625 0.6094q0 0.25 0.125 0.9531 0.25 0.8906 0.5156 1.656 3.188-0.6094 6.531-1.688 0.1719-0.07813 0.2656-0.07813 0.1875 0 0.2656 0.2344 0.3281 1 0.5469 2.141 0.0156 0.0625 0.0156 0.1094 0 0.3594-0.3906 0.4688-2.672 0.8438-6.281 1.641 0.4531 1.219 1.125 2.688 3.141-0.6562 5.828-1.672 0.1719-0.07813 0.2812-0.07813 0.2031 0 0.2969 0.2812 0.2969 0.7344 0.5781 2.109 0.0312 0.1406 0.0312 0.2344 0 0.2188-0.2969 0.3438-2.469 0.9375-5.406 1.562 2.234 3.734 4.188 5.531 0.2656 0.2344 0.2656 0.4219 0 0.125-0.1094 0.3438-0.4688 1-1.312 2-0.2656 0.3125-0.5 0.3125-0.1719 0-0.4531-0.1875-0.5469-0.4375-1.891-1.031-2.375-1.031-6.016-1.031-2.391 0-3.672 0.7344-1.094 0.6406-1.094 1.703 0 1.594 2.234 2.234 1.797 0.5156 5.391 0.5156 0.0156 0 3.516-0.1875 0.3906 0 0.3906 0.3281 0 0.04688 0 0.09375-0.3124 1.906-0.6405 2.906-0.1406 0.4375-0.6719 0.4844-1.109 0.09375-2.312 0.09375-5.891 0-8.766-1.75-2.5-1.516-2.5-4.266 0-2.766 2.375-4.266 2.094-1.312 5.562-1.312 3.625 0 5.5 0.8125-1.078-1.281-2.656-3.781-5.625 0.875-8.766 0.9531-0.4375 0-0.5781-0.4531-0.4531-1.531-0.5781-2.609 4.391-0.09375 8.609-0.7969-0.1719-0.375-0.6094-1.344-0.4219-0.9219-0.6094-1.312-4.797 0.7188-7.766 0.7656-0.5469 0-0.6406-0.4531-0.1094-0.375-0.5156-2.562 3.641 0.04687 7.969-0.5156z" />
        </g>
        <g fill="#000">
          <path d="m92.67-61.15h-2.637l-3.34 0.04687q-0.1641 0-0.1641-0.1641v-0.8203q0-0.1406 0.1641-0.1406l3.34 0.04687h2.637v-8.859q-2.578 0.4102-4.828 0.5977-0.03516 0-0.1172 0.01172-0.05859 0-0.09375 0-0.1875 0-0.3164-0.3398-0.1289-0.3867-0.4336-0.668 5.391-0.2812 9.047-1.348 1.219-0.3516 1.734-0.75 0.5156 0.3281 0.9609 0.7031 0.1406 0.1406 0.1406 0.3047 0 0.1992-0.3398 0.1992-0.2578 0-1.219 0.2812-1.488 0.4219-3.41 0.7969v9.07h3.047l3.34-0.04687q0.1641 0 0.1641 0.1406v0.8203q0 0.1641-0.1641 0.1641l-3.34-0.04687h-3.047v3.047l0.02344 3.047q0 1.289-0.6211 1.758-0.375 0.2578-0.8555 0.3398-0.4688 0.07031-1.582 0.07031-0.3047 0-0.6797 0-0.3047 0-0.375-0.05859-0.05859-0.05859-0.1289-0.3281-0.1172-0.457-0.4102-0.8672 0.9609 0.1172 2.203 0.1172 0.8086 0 1.055-0.2578 0.2461-0.2461 0.2461-0.9609zm-11.7 0.4102v2.355q0 0.1641-0.1641 0.1641h-0.7734q-0.1641 0-0.1641-0.1641l0.04687-5.531v-3.211l-0.04687-4.043q0-0.1641 0.1641-0.1641l1.922 0.04687h1.512l1.922-0.04687q0.1641 0 0.1641 0.1641l-0.04687 3.457v3.316l0.04687 5.215q0 0.1758-0.1641 0.1758h-0.75q-0.1641 0-0.1641-0.1758v-1.559zm0-0.9844h3.504v-8.555h-3.504zm14.7-2.449q1.172-1.875 2.086-4.207 0.1523-0.3984 0.2344-1.078 0.6562 0.2109 1.055 0.4102 0.2695 0.1289 0.2695 0.2812 0 0.1055-0.1875 0.2695-0.2578 0.2109-0.4336 0.668-0.8203 2.004-1.852 3.703-0.1523 0.2695-0.2461 0.2695-0.05859 0-0.3047-0.1289-0.2461-0.1406-0.6211-0.1875zm-7.992-4.324q-0.03516-0.07031-0.03516-0.09375 0-0.05859 0.2695-0.1758l0.3867-0.1406q0.1406-0.05859 0.1992-0.05859 0.07031 0 0.1406 0.1055 1.066 1.934 1.723 4.23 0.01172 0.04687 0.01172 0.05859 0 0.08203-0.3047 0.1992l-0.3281 0.1289q-0.2578 0.1055-0.3164 0.1055-0.08203 0-0.1172-0.1406-0.5273-2.18-1.629-4.219z" />
          <path d="m119.5-71.99 0.7148-0.5039q0.0586-0.03516 0.0937-0.03516 0.0469 0 0.0937 0.03516 1.383 0.9375 2.707 2.906 0.0469 0.04687 0.0469 0.09375 0 0.04687-0.0586 0.1172l-0.5742 0.4805q-0.0586 0.04687-0.1172 0.04687-0.0703 0-0.1523-0.1055-1.207-1.91-2.754-3.035zm2.016-1.488 0.6211-0.4805q0.0703-0.05859 0.1289-0.05859 0.0352 0 0.082 0.03516 1.629 1.184 2.719 2.754 0.0352 0.07031 0.0352 0.1289 0 0.07031-0.082 0.1406l-0.5625 0.4805q-0.0469 0.03516-0.0937 0.03516-0.0703 0-0.1406-0.09375-1.148-1.781-2.707-2.941zm-16.78 3.281q0.4688 0.1289 1.359 0.1289 0.457 0 1.02-0.03516 1.008-0.09375 3.164-0.457 1.043-0.1875 1.441-0.5156 0.1172-0.1055 0.2227-0.1055 0.082 0 0.1875 0.08203 0.4219 0.293 0.6445 0.5508 0.1406 0.1523 0.1406 0.293 0 0.1758-0.2578 0.2812-0.6094 0.2344-1.359 0.9492-0.2812 0.2812-1.219 1.277-3.141 3.422-3.141 7.875 0 2.531 1.219 3.855 1.09 1.184 2.988 1.184 1.582 0 2.625-0.4805 1.031-0.4922 1.91-1.582 2.039-2.59 2.039-7.875 0-2.227-0.2109-3.609-0.0234-0.08203-0.2695-1.172-0.1172-0.3867-0.2344-0.6914-0.0352-0.09375-0.0352-0.1523 0-0.1406 0.1524-0.1875 0.3281-0.1172 0.7969-0.2109 0.0352-0.01172 0.0703-0.01172 0.1875 0 0.2109 0.1523 0.5039 1.898 1.805 4.184 1.43 2.52 3.902 4.992 0.0703 0.07031 0.0703 0.1406 0 0.07031-0.0937 0.2227-0.2227 0.293-0.5742 0.6445-0.0703 0.05859-0.1406 0.05859-0.0937 0-0.1992-0.1289-2.613-2.824-4.359-6.75l-0.1172 0.02344q0.2344 1.98 0.2344 3.598 0 2.496-0.6094 4.582-0.6211 2.121-1.77 3.363-2.004 2.133-4.969 2.133-2.906 0-4.383-1.91-1.254-1.629-1.254-4.371 0-3.961 2.613-7.418 0.9961-1.312 2.168-2.332l-4.301 0.75q-0.1992 0.03516-0.5039 0.1406-0.2109 0.07031-0.293 0.07031-0.1875 0-0.3047-0.293-0.2461-0.5859-0.3867-1.242z" />
          <path d="m137-55.22v-8.426h-6.047v1.277q0 0.1641-0.1641 0.1641h-0.8203q-0.1641 0-0.1641-0.1641l0.0469-2.098v-3.164q0-2.027-0.1758-2.977 0.7617 0.03516 1.277 0.1406 0.2344 0.04687 0.2344 0.1992 0 0.09375-0.0937 0.3867-0.1406 0.3867-0.1406 2.227v2.977h6.047v-6.023q0-2.145-0.1641-3.07 0.5976 0.02344 1.289 0.1172 0.2695 0.04687 0.2695 0.1875 0 0.05859-0.0937 0.4336-0.1758 0.6211-0.1758 2.285v6.07h6.504v-3.117q0-2.027-0.1641-2.977 0.7148 0.03516 1.266 0.1406 0.2695 0.04687 0.2695 0.1992 0 0.08203-0.0937 0.375-0.1758 0.668-0.1758 2.262v3.188l0.0469 2.18q0 0.1758-0.1641 0.1758h-0.8086q-0.1758 0-0.1758-0.1758v-1.219h-6.504v8.426h7.16v-2.402q0-2.004-0.1758-2.953 0.7734 0.03516 1.277 0.1523 0.2695 0.03516 0.2695 0.1641 0 0.07031-0.0937 0.4102-0.1758 0.6094-0.1758 2.227v2.812l0.0469 2.016q0 0.1641-0.1406 0.1641h-0.8438q-0.1641 0-0.1641-0.1641v-1.395h-15.01v1.465q0 0.1641-0.1641 0.1641h-0.8203q-0.1641 0-0.1641-0.1641l0.0469-1.945v-2.789q0-2.016-0.1641-2.941 0.7734 0.03516 1.266 0.1406 0.2695 0.04687 0.2695 0.1875 0 0.05859-0.0937 0.3867-0.1758 0.4688-0.1758 2.18v2.285z" />
          <path d="m156.7-72.34q1.055 0.1289 1.699 0.3164 0.3164 0.1055 0.3164 0.3398 0 0.07031-0.1875 0.5508-0.1758 0.3867-0.293 2.32-0.375 7.184-0.375 10.25 0 2.285 0.7969 3.105 0.668 0.6914 2.227 0.6914 4.535 0 8.543-4.523 0.1055 0.6328 0.3633 1.102 0.0703 0.1523 0.0703 0.2461 0 0.1172-0.2109 0.3398-4.172 4.078-9.035 4.078-2.227 0-3.188-1.242-0.8906-1.148-0.8906-3.586 0-1.688 0.3633-10.61 0.0352-0.75 0.0352-1.266 0-1.184-0.2344-2.121z" />
        </g>
      </g>
    </g>
  </g>
</svg>