<?xml version="1.0" encoding="UTF-8" standalone="no"?>
<svg xmlns:dc="http://purl.org/dc/elements/1.1/" xmlns:cc="http://creativecommons.org/ns#" xmlns:rdf="http://www.w3.org/1999/02/22-rdf-syntax-ns#" xmlns:svg="http://www.w3.org/2000/svg" xmlns="http://www.w3.org/2000/svg" width="16" height="16" viewBox="0 0 4.2333332 4.2333332" version="1.1" id="svg8">
  <defs id="defs2" />
  <metadata id="metadata5">
    <rdf:RDF>
      <cc:Work rdf:about="">
        <dc:format>image/svg+xml</dc:format>
        <dc:type rdf:resource="http://purl.org/dc/dcmitype/StillImage" />
        <dc:title />
      </cc:Work>
    </rdf:RDF>
  </metadata>
  <g id="layer1" transform="matrix(-0.99999998,0,0,-0.9997559,4.2333331,296.92844)" />
  <path transform="scale(0.26458333)" id="rect4484" d="M 4 1 L 4 2 L 4 3 L 5 3 L 5 2 L 5 1 L 4 1 z M 11 1 L 11 2 L 11 3 L 12 3 L 12 2 L 12 1 L 11 1 z M 2 2 L 2 15 L 14 15 L 14 2 L 12.5 2 L 12.5 3.5 L 10.5 3.5 L 10.5 2 L 5.5 2 L 5.5 3.5 L 3.5 3.5 L 3.5 2 L 2 2 z M 3 4 L 13 4 L 13 14 L 3 14 L 3 4 z " style="opacity:1;fill:#000000;fill-opacity:1;fill-rule:nonzero;stroke:none;stroke-width:3.92012596;stroke-miterlimit:4;stroke-dasharray:none;stroke-dashoffset:0;stroke-opacity:1" />
  <path id="rect4518" d="M 2.5135417,1.4552083 2.2489583,1.9843749 h 0.2645834 l 0,1.190625 H 2.2489583 V 3.4395832 H 2.5135417 3.0427083 3.3072917 V 3.1749999 H 3.0427083 l 0,-1.7197916 z" style="opacity:1;fill:#000000;fill-opacity:1;fill-rule:nonzero;stroke:none;stroke-width:1.02050972;stroke-miterlimit:4;stroke-dasharray:none;stroke-dashoffset:0;stroke-opacity:1" />
  <path id="path4531" d="m 1.5212065,1.4552083 c -0.3260676,0 -0.5951648,0.2693756 -0.59516486,0.5957803 H 1.3224741 c 1e-7,-0.1119352 0.086912,-0.1994546 0.1987324,-0.1994546 0.1118195,0 0.1992486,0.087519 0.1992485,0.1994546 0,0.1119353 -0.087428,0.196871 -0.1992485,0.196871 v 0.00103 H 1.2569182 v 0.3968423 h 0.2642883 v 5.202e-4 c 0.080752,0 0.1528607,0.046748 0.1837629,0.1214298 0.030903,0.074682 0.013741,0.1593473 -0.04336,0.2165064 -0.0571,0.057159 -0.1416779,0.073822 -0.2162829,0.042887 C 1.3707222,2.9961416 1.3224741,2.9244745 1.3224741,2.8436398 H 0.92604164 c 0,0.2402254 0.14529946,0.4588953 0.36700976,0.5508254 0.2217102,0.09193 0.4801909,0.040685 0.6498808,-0.1291805 C 2.112622,3.0954198 2.1632986,2.839255 2.071463,2.6173157 2.0449263,2.5531845 2.0056161,2.4977293 1.9604826,2.4478309 2.0562749,2.3419194 2.1163713,2.2034662 2.1163713,2.0509886 c 0,-0.3264047 -0.2690972,-0.5957803 -0.5951648,-0.5957803 z" style="color:#000000;font-style:normal;font-variant:normal;font-weight:normal;font-stretch:normal;font-size:medium;line-height:normal;font-family:sans-serif;font-variant-ligatures:normal;font-variant-position:normal;font-variant-caps:normal;font-variant-numeric:normal;font-variant-alternates:normal;font-feature-settings:normal;text-indent:0;text-align:start;text-decoration:none;text-decoration-line:none;text-decoration-style:solid;text-decoration-color:#000000;letter-spacing:normal;word-spacing:normal;text-transform:none;writing-mode:lr-tb;direction:ltr;text-orientation:mixed;dominant-baseline:auto;baseline-shift:baseline;text-anchor:start;white-space:normal;shape-padding:0;clip-rule:nonzero;display:inline;overflow:visible;visibility:visible;opacity:1;isolation:auto;mix-blend-mode:normal;color-interpolation:sRGB;color-interpolation-filters:linearRGB;solid-color:#000000;solid-opacity:1;vector-effect:none;fill:#000000;fill-opacity:1;fill-rule:nonzero;stroke:none;stroke-width:0.39663732;stroke-linecap:butt;stroke-linejoin:miter;stroke-miterlimit:4;stroke-dasharray:none;stroke-dashoffset:0;stroke-opacity:1;color-rendering:auto;image-rendering:auto;shape-rendering:auto;text-rendering:auto;enable-background:accumulate" />
</svg>