<?xml version="1.0" encoding="UTF-8" standalone="no"?>
<svg xmlns:dc="http://purl.org/dc/elements/1.1/" xmlns:cc="http://creativecommons.org/ns#" xmlns:rdf="http://www.w3.org/1999/02/22-rdf-syntax-ns#" xmlns:svg="http://www.w3.org/2000/svg" xmlns="http://www.w3.org/2000/svg" width="16" height="16" viewBox="0 0 4.2333332 4.2333332" version="1.1" id="svg8">
  <defs id="defs2" />
  <metadata id="metadata5">
    <rdf:RDF>
      <cc:Work rdf:about="">
        <dc:format>image/svg+xml</dc:format>
        <dc:type rdf:resource="http://purl.org/dc/dcmitype/StillImage" />
        <dc:title />
      </cc:Work>
    </rdf:RDF>
  </metadata>
  <g id="layer1" transform="matrix(-0.99999998,0,0,-0.9997559,4.2333331,296.92844)" />
  <path transform="scale(0.26458333)" id="rect4484" d="M 4 1 L 4 2 L 4 3 L 5 3 L 5 2 L 5 1 L 4 1 z M 11 1 L 11 2 L 11 3 L 12 3 L 12 2 L 12 1 L 11 1 z M 2 2 L 2 15 L 14 15 L 14 2 L 12.5 2 L 12.5 3.5 L 10.5 3.5 L 10.5 2 L 5.5 2 L 5.5 3.5 L 3.5 3.5 L 3.5 2 L 2 2 z M 3 4 L 13 4 L 13 14 L 3 14 L 3 4 z " style="opacity:1;fill:#000000;fill-opacity:1;fill-rule:nonzero;stroke:none;stroke-width:3.92012596;stroke-miterlimit:4;stroke-dasharray:none;stroke-dashoffset:0;stroke-opacity:1" />
  <path id="rect4518" transform="scale(0.26458333)" d="M 7 5 L 6 7 L 7 7 L 7 12 L 6 12 L 6 13 L 7 13 L 9 13 L 10 13 L 10 12 L 9 12 L 9 5 L 7 5 z " style="opacity:1;fill:#000000;fill-opacity:1;fill-rule:nonzero;stroke:none;stroke-width:3.8570447;stroke-miterlimit:4;stroke-dasharray:none;stroke-dashoffset:0;stroke-opacity:1" />
</svg>